<?xml version="1.0" encoding="utf-8"?>
<!-- Generator: Adobe Illustrator 22.0.1, SVG Export Plug-In . SVG Version: 6.00 Build 0)  -->
<svg version="1.1" id="Слой_1" xmlns="http://www.w3.org/2000/svg" xmlns:xlink="http://www.w3.org/1999/xlink" x="0px" y="0px"
	 viewBox="0 0 1026 452" style="enable-background:new 0 0 1026 452;" xml:space="preserve">
<style type="text/css">
	.st0{fill:#F1CDB3;}
	.st1{fill:#292929;}
	.st2{fill:#CDCDCD;}
</style>
<path class="st0" d="M524.9,8.9l-2.4-6c0-0.1-0.1-0.2-0.2-0.3c-0.1-0.1-0.2-0.1-0.3-0.2l-2.9-0.8c-8.6-2.3-19.7-2.3-28.2,0L488,2.5
	c-0.1,0-0.2,0.1-0.3,0.2c-0.1,0.1-0.1,0.2-0.2,0.3l-2.4,6c-0.1,0.2-0.1,0.3,0,0.5l1,2.8c0.1,0.2,0.2,0.3,0.3,0.4
	c0.1,0.1,0.3,0.1,0.5,0.1l9.3-1.9c0.1,0,0.3-0.1,0.4-0.2c0.1-0.1,0.2-0.2,0.2-0.4l0.8-4.9c4.4-1.1,10.7-1.1,15.2,0l0.8,4.9
	c0,0.1,0.1,0.3,0.2,0.4c0.1,0.1,0.2,0.2,0.4,0.2l9.3,1.9c0.2,0,0.3,0,0.5-0.1c0.1-0.1,0.3-0.2,0.3-0.4l1-2.8
	C525,9.2,525,9.1,524.9,8.9z M487.1,11.1l-0.5-1.4l9-1.9l-0.3,1.7L487.1,11.1z M496.6,4.1c-0.1,0-0.2,0.1-0.3,0.2
	c-0.1,0.1-0.1,0.2-0.2,0.4l-0.3,1.6l-9,1.9l1.8-4.4l2.6-0.7c8.4-2.2,19.2-2.2,27.5,0l2.6,0.7l1.8,4.4l-9-1.9l-0.3-1.6
	c0-0.1-0.1-0.3-0.2-0.4c-0.1-0.1-0.2-0.2-0.3-0.2C508.6,2.7,501.4,2.7,496.6,4.1z M522.9,11.1l-8.2-1.7l-0.3-1.7l9,1.9L522.9,11.1z"
	/>
<path class="st0" d="M518.3,13.1c0-0.1-0.1-0.3-0.2-0.4c-0.1-0.1-0.2-0.2-0.3-0.2l-4.8-1l-0.6-4c0-0.2-0.1-0.3-0.2-0.4
	c-0.1-0.1-0.3-0.2-0.5-0.2h-1.9V6c0-0.4-0.3-0.7-0.7-0.7s-0.7,0.3-0.7,0.7v0.9h-6.8V6c0-0.4-0.3-0.7-0.7-0.7s-0.7,0.3-0.7,0.7v0.9
	h-1.9c-0.2,0-0.3,0.1-0.5,0.2c-0.1,0.1-0.2,0.3-0.2,0.4l-0.6,4l-4.8,1c-0.1,0-0.3,0.1-0.3,0.2c-0.1,0.1-0.2,0.2-0.2,0.4l-3.2,15
	c0,0.1,0,0.1,0,0.2v3c0,0.2,0.1,0.4,0.2,0.5c0.1,0.1,0.3,0.2,0.5,0.2h31.7c0.2,0,0.4-0.1,0.5-0.2c0.1-0.1,0.2-0.3,0.2-0.5v-3
	c0-0.1,0-0.1,0-0.2L518.3,13.1z M493,13.9l4.8-1.1c0.1,0,0.3-0.1,0.4-0.2c0.1-0.1,0.2-0.2,0.2-0.4l0.6-3.9h12.2l0.6,3.9
	c0,0.1,0.1,0.3,0.2,0.4c0.1,0.1,0.2,0.2,0.4,0.2l4.8,1.1l3,13.6H490L493,13.9z M496.8,29l-0.9,1.6h-1.1l0.9-1.6H496.8z M498.4,29
	h15.3l-0.9,1.6h-15.3L498.4,29z M489.9,29h4.3l-0.9,1.6h-3.4V29z M514.4,30.6l0.9-1.6h4.9v1.6H514.4z"/>
<path class="st0" d="M505,26.2c4.1,0,7.5-3.5,7.5-7.7c0-4.3-3.4-7.7-7.5-7.7s-7.5,3.5-7.5,7.7C497.5,22.7,500.9,26.2,505,26.2z
	 M505,12.2c3.4,0,6.1,2.8,6.1,6.3c0,3.5-2.7,6.3-6.1,6.3s-6.1-2.8-6.1-6.3C498.9,15,501.6,12.2,505,12.2z"/>
<path class="st0" d="M505,21.2c1.5,0,2.7-1.2,2.7-2.7c0-1.5-1.2-2.7-2.7-2.7s-2.7,1.2-2.7,2.7C502.3,20,503.5,21.2,505,21.2z
	 M505,17.2c0.7,0,1.3,0.6,1.3,1.3c0,0.7-0.6,1.3-1.3,1.3s-1.3-0.6-1.3-1.3C503.7,17.7,504.3,17.2,505,17.2z"/>
<path class="st0" d="M316.3,9h-38.6c-0.2,0-0.4,0.1-0.5,0.2c-0.1,0.1-0.2,0.3-0.2,0.5v24.6c0,0.2,0.1,0.4,0.2,0.5
	c0.1,0.1,0.3,0.2,0.5,0.2h38.6c0.2,0,0.4-0.1,0.5-0.2c0.1-0.1,0.2-0.3,0.2-0.5V9.7c0-0.2-0.1-0.4-0.2-0.5C316.7,9.1,316.5,9,316.3,9
	z M309.6,24c0.1,0.5,0.2,1,0.1,1.3c-0.2,0.3-0.7,0.4-1.1,0.6c-0.4,0.1-0.8,0.2-1.1,0.5c-0.3,0.2-0.6,0.5-0.9,0.7
	c-0.4,0.4-0.8,0.7-1.1,0.7c-0.3,0-0.7-0.4-1.1-0.7c-0.3-0.3-0.6-0.5-0.9-0.7c-0.4-0.2-0.7-0.3-1.1-0.5c-0.5-0.2-1-0.3-1.1-0.6
	c-0.1-0.3,0-0.8,0.1-1.3c0.1-0.4,0.2-0.8,0.2-1.3c0-0.4-0.1-0.8-0.2-1.3c-0.1-0.5-0.2-1-0.1-1.3c0.2-0.3,0.7-0.4,1.1-0.6
	c0.4-0.1,0.8-0.2,1.1-0.5c0.3-0.2,0.6-0.5,0.9-0.7c0.4-0.4,0.8-0.7,1.1-0.7c0.3,0,0.7,0.4,1.1,0.7c0.3,0.3,0.6,0.5,0.9,0.7
	c0.4,0.2,0.7,0.3,1.1,0.5c0.5,0.2,1,0.3,1.1,0.6c0.1,0.3,0,0.8-0.1,1.3c-0.1,0.4-0.2,0.8-0.2,1.3C309.4,23.2,309.5,23.6,309.6,24z
	 M307.6,17.7c-0.1-0.1-0.1-0.1-0.2-0.2c-0.5-0.5-1.2-1.1-2-1.1s-1.5,0.6-2,1.1c-0.2,0.2-0.5,0.4-0.7,0.6c-0.2,0.1-0.5,0.2-0.8,0.3
	c-0.7,0.2-1.5,0.5-1.9,1.2c-0.4,0.7-0.2,1.5-0.1,2.3c0.1,0.3,0.1,0.7,0.1,1s-0.1,0.6-0.1,1c-0.1,0.6-0.3,1.3-0.1,2l-2.8,2.9
	l-17.7-18.2h35.4L307.6,17.7z M288.7,22l-10.3,10.6V11.4L288.7,22z M289.7,23l6.8,7c0.1,0.1,0.1,0.1,0.2,0.2c0.1,0,0.2,0.1,0.3,0.1
	c0.1,0,0.2,0,0.3-0.1c0.1,0,0.2-0.1,0.2-0.2l3.2-3.3c0.4,0.2,0.8,0.3,1.1,0.5c0.3,0.1,0.6,0.2,0.8,0.3c0.2,0.1,0.4,0.3,0.7,0.6
	c0.5,0.5,1.2,1.1,2,1.1s1.5-0.6,2-1.1c0.2-0.2,0.5-0.4,0.7-0.6c0.1-0.1,0.3-0.1,0.5-0.2l6.1,6.3h-35.4L289.7,23z M310,26.8
	c0.3-0.2,0.7-0.4,0.9-0.8c0.4-0.7,0.2-1.5,0.1-2.3c-0.1-0.3-0.1-0.7-0.1-1s0.1-0.6,0.1-1c0.2-0.7,0.3-1.5-0.1-2.3
	c-0.4-0.7-1.2-1-1.9-1.2l-0.1,0l6.8-7v21.2L310,26.8z"/>
<path class="st0" d="M305.4,19.2c-1.9,0-3.5,1.6-3.5,3.5c0,2,1.6,3.5,3.5,3.5s3.5-1.6,3.5-3.5C308.9,20.8,307.3,19.2,305.4,19.2z
	 M305.4,24.9c-1.2,0-2.1-1-2.1-2.1c0-1.2,0.9-2.1,2.1-2.1s2.1,1,2.1,2.1C307.5,24,306.5,24.9,305.4,24.9z"/>
<path class="st1" d="M971,25v-2h11v-2l3,3l-3,3v-2H971z"/>
<path class="st1" d="M56,38H34c-2.2,0-4-1.8-4-4V19c0-2.2,1.8-4,4-4h22c2.2,0,4,1.8,4,4v15C60,36.2,58.2,38,56,38z M34,16.1
	c-1.6,0-2.9,1.3-2.9,2.9v15c0,1.6,1.3,2.9,2.9,2.9h22c1.6,0,2.9-1.3,2.9-2.9V19c0-1.6-1.3-2.9-2.9-2.9H34z M50.7,18.4
	c1.4,0,2.6,1.2,2.6,2.6c0,1.4-1.2,2.6-2.6,2.6c-1.4,0-2.6-1.2-2.6-2.6S49.3,18.4,50.7,18.4z M54.3,18.4c1.4,0,2.6,1.2,2.6,2.6
	c0,1.4-1.2,2.6-2.6,2.6c-1.4,0-2.6-1.2-2.6-2.6S52.9,18.4,54.3,18.4z M33.1,31.3h4.8V33h-4.8V31.3z M39.4,31.3h4.8V33h-4.8V31.3z
	 M45.8,31.3h4.8V33h-4.8V31.3z M52.1,31.3h4.8V33h-4.8V31.3z M33.1,18.4h9v1.7h-9V18.4z M33.1,21.8h4.8v1.7h-4.8V21.8z"/>
<path class="st0" d="M729,0c-6.1,0-11,4.8-11,10.7c0,1.8,0.5,3.5,1.3,5.1l9.1,15.9c0.1,0.2,0.4,0.3,0.6,0.3s0.5-0.1,0.6-0.3
	l9.1-15.9c0.9-1.5,1.3-3.3,1.3-5.1C740,4.8,735.1,0,729,0z M737.5,15.1L729,30l-8.5-14.9c-0.8-1.4-1.2-2.9-1.2-4.4
	c0-5.1,4.3-9.3,9.6-9.3s9.6,4.2,9.6,9.3C738.6,12.2,738.2,13.7,737.5,15.1z"/>
<path class="st0" d="M729,5.3c-3,0-5.5,2.4-5.5,5.3c0,2.9,2.5,5.3,5.5,5.3s5.5-2.4,5.5-5.3C734.5,7.7,732,5.3,729,5.3z M729,14.7
	c-2.3,0-4.1-1.8-4.1-4c0-2.2,1.8-4,4.1-4s4.1,1.8,4.1,4C733.1,12.9,731.3,14.7,729,14.7z"/>
<path class="st0" d="M763,353l-27-19.7c-0.2-0.1-0.4-0.2-0.7-0.2c-0.2,0-0.5,0.1-0.7,0.2l-27,19.7c-0.5,0.4-0.6,1.1-0.3,1.6l3.5,4.8
	c0.1,0.1,0.2,0.2,0.3,0.3c0.1,0.1,0.3,0.1,0.4,0.2c0.2,0,0.3,0,0.5,0c0.1,0,0.3-0.1,0.4-0.2l1.1-0.8v32.9c0,0.6,0.5,1.2,1.2,1.2
	h41.1c0.6,0,1.2-0.5,1.2-1.2v-32.9l1,0.7c0.1,0.1,0.3,0.2,0.4,0.2c0.2,0,0.3,0,0.5,0c0.2,0,0.3-0.1,0.4-0.2c0.1-0.1,0.2-0.2,0.3-0.3
	l3.5-4.8C763.6,354.1,763.5,353.3,763,353z M754.7,386.1H727c-0.6,0-1.2,0.5-1.2,1.2c0,0.6,0.5,1.2,1.2,1.2h27.7v2.2h-38.8v-32.6
	h27.4c0.6,0,1.2-0.5,1.2-1.2c0-0.6-0.5-1.2-1.2-1.2h-25.5l17.4-12.7l19.4,14.2V386.1z M758.5,357.1L736,340.6
	c-0.2-0.1-0.4-0.2-0.7-0.2c-0.2,0-0.5,0.1-0.7,0.2l-22.5,16.5l-2.1-2.9l25.3-18.5l25.3,18.5L758.5,357.1z"/>
<path class="st0" d="M748.8,356.7c0-0.1,0-0.1-0.1-0.2c0-0.1-0.1-0.1-0.1-0.2c0-0.1-0.1-0.1-0.1-0.2c-0.2-0.2-0.5-0.3-0.8-0.3
	c-0.3,0-0.6,0.1-0.8,0.3c-0.1,0.1-0.1,0.1-0.1,0.2c0,0.1-0.1,0.1-0.1,0.2c0,0.1-0.1,0.1-0.1,0.2c0,0.1,0,0.2,0,0.2
	c0,0.1,0,0.2,0,0.2c0,0.1,0,0.1,0.1,0.2c0,0.1,0.1,0.1,0.1,0.2c0,0.1,0.1,0.1,0.1,0.2c0.1,0.1,0.1,0.1,0.2,0.1
	c0.1,0,0.1,0.1,0.2,0.1c0.1,0,0.1,0.1,0.2,0.1c0.1,0,0.2,0,0.2,0s0.2,0,0.2,0c0.1,0,0.1,0,0.2-0.1c0.1,0,0.1-0.1,0.2-0.1
	c0.1,0,0.1-0.1,0.2-0.1c0.1-0.1,0.1-0.1,0.1-0.2c0-0.1,0.1-0.1,0.1-0.2c0-0.1,0.1-0.1,0.1-0.2c0-0.1,0-0.2,0-0.2
	C748.8,356.9,748.8,356.8,748.8,356.7z"/>
<path class="st0" d="M723.9,387c0-0.1,0-0.1-0.1-0.2c0-0.1-0.1-0.1-0.1-0.2c0-0.1-0.1-0.1-0.1-0.2c-0.1-0.1-0.1-0.1-0.2-0.1
	c-0.1-0.1-0.3-0.1-0.4-0.2c-0.2,0-0.3,0-0.5,0c-0.1,0-0.1,0-0.2,0.1c-0.1,0-0.1,0.1-0.2,0.1c-0.1,0-0.1,0.1-0.2,0.1
	c-0.1,0.1-0.1,0.1-0.1,0.2c-0.1,0.1-0.1,0.3-0.2,0.4c0,0.1,0,0.2,0,0.2c0,0.2,0,0.3,0.1,0.4c0,0.1,0.1,0.1,0.1,0.2
	c0,0.1,0.1,0.1,0.1,0.2c0.1,0.1,0.1,0.1,0.2,0.1c0.1,0,0.1,0.1,0.2,0.1c0.1,0,0.1,0.1,0.2,0.1c0.1,0,0.2,0,0.2,0
	c0.2,0,0.5-0.1,0.7-0.2c0.1,0,0.1-0.1,0.2-0.1c0.1-0.1,0.1-0.1,0.1-0.2c0.1-0.2,0.2-0.4,0.2-0.7C723.9,387.2,723.9,387.1,723.9,387z
	"/>
<path class="st0" d="M749.8,363.6c0-1-0.4-1.9-1.1-2.6c-0.7-0.7-1.7-1.1-2.6-1.1c-0.3,0-0.6,0-0.9,0.1c-2.2,0.6-4.3,1.3-6.3,2.2
	c-1.2-0.3-2.4-0.4-3.6-0.4c-0.7,0-1.4,0-2,0.1c-0.5,0.1-1,0.2-1.5,0.3c-2-0.9-4.2-1.6-6.3-2.2c0,0,0,0,0,0c-1.2-0.3-2.3,0-3.3,0.7
	c-0.9,0.8-1.4,1.9-1.3,3.1c0.1,1.2,0.2,2.4,0.4,3.6c0.2,1.1,0.4,2.2,0.6,3.2c-0.4,0.9-0.6,1.9-0.8,2.9c-0.1,0.4-0.1,0.8-0.1,1.2
	c0,5.2,4.6,9.5,10.2,9.5h8.5c3.1,0,6-1.3,7.9-3.5c1.8-2,2.6-4.6,2.2-7.2c-0.1-0.6-0.2-1.1-0.3-1.7c-0.1-0.4-0.3-0.8-0.4-1.2
	c0.5-2.3,0.8-4.6,1-6.9C749.8,363.7,749.8,363.6,749.8,363.6z M747.5,363.6L747.5,363.6c-0.1,2.3-0.5,4.6-1,6.8
	c-0.1,0.2,0,0.5,0.1,0.7c0.2,0.4,0.3,0.9,0.5,1.3c0.1,0.4,0.2,0.9,0.3,1.4c0.3,1.9-0.3,3.9-1.6,5.4c-1.5,1.7-3.7,2.7-6.1,2.7h-8.5
	c-4.3,0-7.9-3.2-7.9-7.2c0-0.3,0-0.6,0.1-0.9c0.1-0.9,0.4-1.8,0.7-2.6c0.1-0.2,0.1-0.5,0.1-0.7c-0.3-1.1-0.5-2.3-0.6-3.4
	c-0.2-1.1-0.3-2.3-0.3-3.4c0-0.4,0.2-0.8,0.5-1.1c0.2-0.2,0.5-0.3,0.9-0.3c0.1,0,0.2,0,0.3,0l0,0c2.2,0.6,4.3,1.3,6.4,2.2
	c0.2,0.1,0.5,0.1,0.8,0.1c0.5-0.1,1.1-0.3,1.7-0.3c0.6-0.1,1.1-0.1,1.7-0.1c1.1,0,2.3,0.1,3.4,0.4c0.3,0.1,0.5,0,0.8-0.1
	c2.1-0.9,4.2-1.7,6.4-2.2c0.1,0,0.2,0,0.3,0h0c0.3,0,0.7,0.1,1,0.4c0.1,0.1,0.2,0.3,0.3,0.4C747.5,363.2,747.5,363.4,747.5,363.6
	C747.5,363.6,747.5,363.6,747.5,363.6z"/>
<path class="st0" d="M737.5,376.6c-0.6,0-1-0.5-1-1c0-0.6-0.5-1.2-1.2-1.2c-0.6,0-1.2,0.5-1.2,1.2v0c0,0.6-0.5,1-1,1
	c-0.6,0-1.2,0.5-1.2,1.2s0.5,1.2,1.2,1.2c0.8,0,1.6-0.3,2.2-0.8c0.6,0.5,1.4,0.8,2.2,0.8c0.6,0,1.2-0.5,1.2-1.2
	S738.1,376.6,737.5,376.6z"/>
<path class="st0" d="M731.2,371.2l-1.7-0.8c-0.2-0.1-0.3-0.1-0.5-0.1c-0.2,0-0.3,0-0.5,0.1l-1.7,0.8c-0.6,0.3-0.8,1-0.6,1.6
	c0.1,0.1,0.2,0.3,0.3,0.4c0.1,0.1,0.2,0.2,0.4,0.2c0.1,0.1,0.3,0.1,0.5,0.1c0.2,0,0.3,0,0.4-0.1l1.3-0.6l1.3,0.6
	c0.6,0.3,1.3,0,1.6-0.6C732,372.1,731.8,371.4,731.2,371.2z"/>
<path class="st0" d="M743.8,371.2l-1.7-0.8c-0.2-0.1-0.3-0.1-0.5-0.1c-0.2,0-0.3,0-0.5,0.1l-1.7,0.8c-0.6,0.3-0.8,1-0.6,1.6
	c0.3,0.6,1,0.8,1.6,0.6l1.3-0.6l1.3,0.6c0.2,0.1,0.3,0.1,0.5,0.1c0.4,0,0.9-0.3,1.1-0.7C744.7,372.1,744.4,371.4,743.8,371.2z"/>
<path class="st0" d="M529.3,349.3c-1.6-1.3-3.8-2.4-6.5-3.3c-5.6-1.9-12.9-2.9-20.8-2.9c-7.8,0-15.2,1-20.8,2.9
	c-2.8,0.9-5,2.1-6.5,3.3c-1.8,1.4-2.7,3-2.7,4.7v13.1c0,1.7,0.9,3.3,2.7,4.7c1.6,1.3,3.8,2.4,6.5,3.3c5.3,1.8,12.2,2.8,19.6,2.9v4.7
	h-4c-0.4-2.4-2.5-4.2-5-4.2c-2.8,0-5.1,2.3-5.1,5.1c0,1.2,0.4,2.4,1.2,3.3c-0.8,0.9-1.2,2.1-1.2,3.3c0,2.8,2.3,5.1,5.1,5.1
	c2.5,0,4.6-1.8,5-4.2h10.4c0.4,2.4,2.5,4.2,5,4.2c2.8,0,5.1-2.3,5.1-5.1c0-1.2-0.4-2.4-1.2-3.3c0.8-0.9,1.2-2.1,1.2-3.3
	c0-2.8-2.3-5.1-5.1-5.1c-2.5,0-4.6,1.8-5,4.2h-4v-4.7c7.4-0.1,14.3-1.1,19.6-2.9c2.8-0.9,5-2.1,6.5-3.3c1.8-1.4,2.7-3,2.7-4.7V354
	C532,352.3,531.1,350.7,529.3,349.3z M508.3,385.1c0.2,0,0.3,0,0.5-0.1c0.1-0.1,0.3-0.2,0.4-0.3c0.1-0.1,0.2-0.3,0.2-0.4
	c0.1-0.2,0.1-0.3,0.1-0.5c0-0.1,0-0.1,0-0.2c0-1.5,1.2-2.8,2.8-2.8c1.5,0,2.8,1.2,2.8,2.8c0,0.9-0.5,1.8-1.3,2.3
	c-0.2,0.1-0.3,0.3-0.4,0.4c-0.1,0.2-0.1,0.4-0.1,0.6s0,0.4,0.1,0.6s0.2,0.3,0.4,0.4c0.8,0.5,1.3,1.4,1.3,2.3c0,1.5-1.2,2.8-2.8,2.8
	c-1.5,0-2.8-1.2-2.8-2.8c0-0.1,0-0.1,0-0.2c0-0.2,0-0.3-0.1-0.5c-0.1-0.1-0.1-0.3-0.3-0.4c-0.1-0.1-0.2-0.2-0.4-0.3
	c-0.1-0.1-0.3-0.1-0.5-0.1h-12.6c-0.2,0-0.3,0-0.5,0.1c-0.1,0.1-0.3,0.2-0.4,0.3c-0.1,0.1-0.2,0.3-0.2,0.4c-0.1,0.1-0.1,0.3-0.1,0.5
	c0,0.1,0,0.1,0,0.2c0,1.5-1.2,2.8-2.8,2.8s-2.8-1.2-2.8-2.8c0-0.9,0.5-1.8,1.3-2.3c0.2-0.1,0.3-0.3,0.4-0.4c0.1-0.2,0.1-0.4,0.1-0.6
	s0-0.4-0.1-0.6c-0.1-0.2-0.2-0.3-0.4-0.4c-0.8-0.5-1.3-1.4-1.3-2.3c0-1.5,1.2-2.8,2.8-2.8s2.8,1.2,2.8,2.8c0,0.1,0,0.1,0,0.2
	c0,0.2,0,0.3,0.1,0.5c0.1,0.1,0.1,0.3,0.2,0.4c0.1,0.1,0.2,0.2,0.4,0.3c0.1,0.1,0.3,0.1,0.5,0.1H508.3z M502,375.7
	c-1.6,0-2.8-1.3-2.8-2.8c0-1.6,1.3-2.8,2.8-2.8c1.6,0,2.8,1.3,2.8,2.8C504.8,374.5,503.6,375.7,502,375.7z M529.7,367.1
	c0,3.7-9.4,7.8-23.3,8.5c0.5-0.8,0.8-1.8,0.8-2.7c0-0.4,0-0.7-0.1-1.1c4.5-0.3,8.8-1,12.3-2c0.6-0.2,1-0.8,0.8-1.4
	c-0.2-0.6-0.8-1-1.4-0.8c-3.6,1-8,1.7-12.8,2c-0.9-1.1-2.4-1.8-3.9-1.8c-1.6,0-3,0.7-3.9,1.8c-3.2-0.2-6.3-0.5-9.1-1
	c-0.6-0.1-1.2,0.3-1.4,0.9c-0.1,0.6,0.3,1.2,0.9,1.4c2.6,0.5,5.5,0.8,8.4,1c-0.1,0.3-0.1,0.7-0.1,1.1c0,1,0.3,1.9,0.8,2.7
	c-13.9-0.7-23.3-4.8-23.3-8.5v-8.7l0,0c0.1,0.1,0.2,0.2,0.3,0.3c0.2,0.1,0.3,0.2,0.5,0.4l0,0c0.1,0.1,0.2,0.1,0.3,0.2l0,0
	c0.1,0.1,0.2,0.1,0.3,0.2c0,0,0,0,0.1,0c0.1,0.1,0.2,0.1,0.3,0.2l0,0c1.4,0.9,3.1,1.6,5.1,2.3c5.6,1.9,12.9,2.9,20.8,2.9
	c7.8,0,15.2-1,20.8-2.9c2-0.7,3.7-1.5,5.1-2.3l0,0c0.1-0.1,0.2-0.1,0.3-0.2l0.1,0c0.1-0.1,0.2-0.1,0.3-0.2l0,0
	c0.1-0.1,0.2-0.1,0.3-0.2l0,0c0.2-0.1,0.3-0.2,0.5-0.4c0.1-0.1,0.2-0.2,0.3-0.3l0,0V367.1z M479.5,358.9c1-0.5,2.4-1,4.3-1.5
	c5-1.4,11.5-2.2,18.2-2.2s13.2,0.8,18.2,2.2c1.9,0.5,3.3,1.1,4.3,1.5c-4.8,2.2-12.8,3.8-22.5,3.8S484.4,361,479.5,358.9z
	 M529.6,354.2c0,0.1,0,0.1,0,0.2l0,0c0,0.1,0,0.1,0,0.2c0,0.1,0,0.1,0,0.2l0,0c0,0.1-0.1,0.1-0.1,0.2c0,0,0,0.1,0,0.1
	c0,0.1-0.1,0.1-0.1,0.2l0,0c-0.5,0.9-1.4,1.6-2.3,2.3c-1.2-0.7-3.2-1.6-6.1-2.4c-5.2-1.5-11.9-2.3-18.8-2.3s-13.6,0.8-18.8,2.3
	c-3,0.8-4.9,1.7-6.1,2.4c-0.9-0.6-1.8-1.4-2.3-2.3l0,0c0-0.1-0.1-0.1-0.1-0.2c0,0,0-0.1,0-0.1c0,0,0,0,0-0.1c0,0,0-0.1-0.1-0.1
	c0,0,0,0,0,0c0-0.1,0-0.1-0.1-0.2c0-0.1,0-0.1,0-0.2l0,0c0-0.1,0-0.1,0-0.2c0-0.1,0-0.1,0-0.2c0-4.1,11.4-8.6,27.7-8.6
	c16.3,0,27.7,4.6,27.7,8.6C529.7,354,529.7,354.1,529.6,354.2z"/>
<path class="st0" d="M520.2,350.6c0-0.2-0.2-0.4-0.3-0.6c-0.1-0.1-0.1-0.1-0.2-0.1c-0.1-0.1-0.3-0.1-0.4-0.2c-0.2,0-0.3,0-0.5,0
	c-0.1,0-0.1,0-0.2,0.1c-0.1,0-0.1,0.1-0.2,0.1c-0.1,0-0.1,0.1-0.2,0.1c-0.1,0.1-0.1,0.1-0.1,0.2c-0.1,0.1-0.1,0.3-0.2,0.4
	c0,0.1,0,0.2,0,0.2c0,0.1,0,0.2,0,0.2c0,0.2,0.1,0.3,0.2,0.4c0,0.1,0.1,0.1,0.1,0.2c0.1,0.1,0.1,0.1,0.2,0.1c0.1,0,0.1,0.1,0.2,0.1
	c0.1,0,0.1,0.1,0.2,0.1c0.1,0,0.2,0,0.2,0s0.2,0,0.2,0c0.1,0,0.1,0,0.2-0.1c0.1,0,0.1-0.1,0.2-0.1c0.1,0,0.1-0.1,0.2-0.1
	c0.1-0.1,0.1-0.1,0.1-0.2c0.1-0.1,0.1-0.3,0.2-0.4c0-0.1,0-0.2,0-0.2S520.2,350.7,520.2,350.6z"/>
<path class="st0" d="M515.5,348.9c-4-0.8-8.6-1.2-13.3-1.2c-6.4,0-12.7,0.8-17.5,2.2c-0.6,0.2-1,0.8-0.8,1.4
	c0.1,0.5,0.6,0.9,1.1,0.9c0.1,0,0.2,0,0.3,0c4.7-1.3,10.7-2.1,16.9-2.1c4.5,0,9,0.4,12.9,1.1c0.6,0.1,1.2-0.3,1.4-0.9
	C516.5,349.6,516.1,349,515.5,348.9z"/>
<path class="st0" d="M486.1,368.6c0-0.1,0-0.1-0.1-0.2c0-0.1-0.1-0.1-0.1-0.2c0-0.1-0.1-0.1-0.1-0.2c-0.1-0.1-0.1-0.1-0.2-0.1
	c-0.1,0-0.1-0.1-0.2-0.1c-0.1,0-0.1-0.1-0.2-0.1c-0.2,0-0.3,0-0.5,0c-0.1,0-0.1,0-0.2,0.1c-0.1,0-0.1,0.1-0.2,0.1
	c-0.1,0-0.1,0.1-0.2,0.1c-0.1,0.1-0.1,0.1-0.1,0.2c0,0.1-0.1,0.1-0.1,0.2c0,0.1-0.1,0.1-0.1,0.2c0,0.1,0,0.2,0,0.2
	c0,0.2,0,0.3,0.1,0.4c0,0.1,0.1,0.1,0.1,0.2c0,0.1,0.1,0.1,0.1,0.2c0.1,0.1,0.1,0.1,0.2,0.1c0.1,0,0.1,0.1,0.2,0.1
	c0.1,0,0.1,0.1,0.2,0.1c0.1,0,0.2,0,0.2,0c0.1,0,0.2,0,0.2,0c0.1,0,0.1,0,0.2-0.1c0.1,0,0.1-0.1,0.2-0.1c0.1,0,0.1-0.1,0.2-0.1
	c0.1-0.1,0.2-0.2,0.3-0.4c0.1-0.1,0.1-0.3,0.1-0.4C486.1,368.8,486.1,368.7,486.1,368.6z"/>
<path class="st0" d="M306.7,339.9l-15.6-15.6c-0.5-0.5-1.2-0.5-1.7,0l-4.1,4.1c-0.2,0.2-0.3,0.5-0.3,0.8s0.1,0.6,0.3,0.8l4.9,4.9
	l-4.7,4.7l-7.2-7.2c-0.5-0.5-1.2-0.5-1.7,0l-4.8,4.8c-0.2,0.2-0.3,0.5-0.3,0.8c0,0.3,0.1,0.6,0.3,0.8l1.5,1.5l-19.4,19.4
	c-1.8,1.8-1.8,4.7,0,6.5l1.5,1.5l-2.7,2.7c-0.1,0.1-0.2,0.2-0.3,0.4c-0.1,0.1-0.1,0.3-0.1,0.4c0,0.2,0,0.3,0.1,0.4
	c0.1,0.1,0.1,0.3,0.3,0.4l2.1,2.1l-7.6,7.6c-0.5,0.5-0.5,1.2,0,1.7c0.2,0.2,0.5,0.3,0.8,0.3s0.6-0.1,0.8-0.3l7.6-7.6l2.1,2.1
	c0.2,0.2,0.5,0.3,0.8,0.3c0.3,0,0.6-0.1,0.8-0.3l2.7-2.7l1.5,1.5c0.9,0.9,2,1.3,3.2,1.3c1.2,0,2.4-0.5,3.2-1.3l19.4-19.4l1.5,1.5
	c0.1,0.1,0.2,0.2,0.4,0.3c0.1,0.1,0.3,0.1,0.4,0.1c0.3,0,0.6-0.1,0.8-0.3l4.8-4.8c0.2-0.2,0.3-0.5,0.3-0.8s-0.1-0.6-0.3-0.8
	l-7.2-7.2l4.7-4.7l4.9,4.9c0.1,0.1,0.2,0.2,0.4,0.3c0.1,0.1,0.3,0.1,0.4,0.1c0.3,0,0.6-0.1,0.8-0.3l4.1-4.1
	C307.1,341.1,307.1,340.4,306.7,339.9z M271.7,345.5l5.4,5.4c0.1,0.1,0.2,0.2,0.4,0.3c0.1,0.1,0.3,0.1,0.4,0.1
	c0.3,0,0.6-0.1,0.8-0.3c0.5-0.5,0.5-1.2,0-1.7l-5.4-5.4l1.8-1.8l10.1,10.1l-5.4,5.4l-10.1-10.1L271.7,345.5z M259.6,375.7l-4.3-4.3
	l1.9-1.9l4.3,4.3L259.6,375.7z M269.4,375.3c-0.9,0.9-2.3,0.9-3.2,0l-10.6-10.6c-0.9-0.9-0.9-2.3,0-3.2l1.7-1.7l2.9,2.9
	c0.2,0.2,0.5,0.3,0.8,0.3c0.3,0,0.6-0.1,0.8-0.3c0.5-0.5,0.5-1.2,0-1.7l-2.9-2.9l1.9-1.9l5.4,5.4c0.2,0.2,0.5,0.3,0.8,0.3
	c0.3,0,0.6-0.1,0.8-0.3c0.5-0.5,0.5-1.2,0-1.7l-5.4-5.4l1.9-1.9l2.9,2.9c0.2,0.2,0.5,0.3,0.8,0.3c0.3,0,0.6-0.1,0.8-0.3
	c0.5-0.5,0.5-1.2,0-1.7l-2.9-2.9l1.9-1.9l10.1,10.1l-7.6,7.6c-0.5,0.5-0.5,1.2,0,1.7c0.2,0.2,0.5,0.3,0.8,0.3c0.3,0,0.6-0.1,0.8-0.3
	l7.6-7.6l2,2L269.4,375.3z M283.5,361.2l-2-2l5.4-5.4l2,2L283.5,361.2z M296,353.4l-3.1,3.1l-18.4-18.4l3.1-3.1L296,353.4z
	 M289.6,343.8l-2.4-2.4l4.7-4.7l2.4,2.4L289.6,343.8z M301.7,343.2l-13.9-13.9l2.5-2.5l13.9,13.9L301.7,343.2z"/>
<path class="st0" d="M269.3,370.7c0-0.1,0-0.1-0.1-0.2c0-0.1-0.1-0.1-0.1-0.2c0-0.1-0.1-0.1-0.1-0.2c-0.1-0.1-0.1-0.1-0.2-0.1
	c-0.1,0-0.1-0.1-0.2-0.1c-0.1,0-0.1-0.1-0.2-0.1c-0.2,0-0.3,0-0.5,0c-0.1,0-0.1,0-0.2,0.1c-0.1,0-0.1,0.1-0.2,0.1
	c-0.1,0-0.1,0.1-0.2,0.1c-0.1,0.1-0.1,0.1-0.1,0.2c0,0.1-0.1,0.1-0.1,0.2c0,0.1-0.1,0.1-0.1,0.2c0,0.1,0,0.2,0,0.2
	c0,0.1,0,0.2,0,0.2c0,0.1,0,0.1,0.1,0.2c0,0.1,0.1,0.1,0.1,0.2c0,0.1,0.1,0.1,0.1,0.2c0.1,0.1,0.2,0.2,0.4,0.3
	c0.1,0.1,0.3,0.1,0.4,0.1c0.2,0,0.3,0,0.4-0.1c0.1-0.1,0.3-0.1,0.4-0.3c0.1-0.1,0.1-0.1,0.1-0.2c0-0.1,0.1-0.1,0.1-0.2
	c0-0.1,0.1-0.1,0.1-0.2c0-0.1,0-0.2,0-0.2C269.3,370.9,269.3,370.8,269.3,370.7z"/>
<path class="st0" d="M72.3,356.4c-3.3-1.1-7.6-1.7-12.2-1.7c-0.3,0-0.6,0-0.9,0c-4.3,0.1-8.3,0.7-11.3,1.7c-0.5,0.2-1,0.4-1.5,0.6
	v-18.7c0-7.8-6.4-14.2-14.2-14.2c-7.8,0-14.2,6.4-14.2,14.2v25.7c0,7.8,6.4,14.2,14.2,14.2c2.5,0,4.9-0.7,7.1-1.9
	c1.4-0.8,2.6-1.8,3.6-2.9c0.7,1.1,2.2,2.2,5,3.1c3.3,1.1,7.6,1.7,12.2,1.7c4.6,0,8.9-0.6,12.2-1.7c4.7-1.6,5.7-3.7,5.7-5.1v-9.8
	C78,360.1,77,358,72.3,356.4z M44.6,361.5c0,0,0-0.1,0-0.1l0,0c0-0.2,0.2-0.5,0.4-0.7l0,0c0,0,0.1-0.1,0.1-0.1c0,0,0.1-0.1,0.1-0.1
	l0,0c0.2-0.2,0.4-0.4,0.7-0.5c0,0,0,0,0,0c0.6-0.4,1.5-0.8,2.7-1.3c3-1,7.1-1.6,11.4-1.6c4,0,7.7,0.5,10.6,1.3L45.6,363
	C44.9,362.4,44.6,361.9,44.6,361.5L44.6,361.5z M44.1,358.3c-0.9,0.7-1.4,1.4-1.7,2c-0.1,0.2-0.1,0.4-0.2,0.7c0,0.1,0,0.2,0,0.3l0,0
	c0,0.1,0,0.1,0,0.2v8.8c-2.2,3.4-5.9,5.5-10,5.5c-6.6,0-11.9-5.3-11.9-11.9v-11.7h2.3v6.3c0,0.6,0.5,1.2,1.2,1.2s1.2-0.5,1.2-1.2
	v-6.3h19.1V358.3z M44.1,349.9H25v-11.7c0-4,3.2-7.2,7.2-7.2s7.2,3.2,7.2,7.2c0,0.6,0.5,1.2,1.2,1.2c0.6,0,1.2-0.5,1.2-1.2
	c0-5.3-4.3-9.5-9.5-9.5c-5.3,0-9.5,4.3-9.5,9.5v11.7h-2.3v-11.7c0-6.6,5.3-11.9,11.9-11.9c6.6,0,11.9,5.3,11.9,11.9V349.9z
	 M75.7,371.3c0,0.7-1.1,1.9-4.1,2.9c-3,1-7.1,1.6-11.4,1.6c-4.3,0-8.4-0.6-11.4-1.6c-3-1-4.1-2.2-4.1-2.9v-0.6l0,0v-5.6
	c0.8,0.5,1.9,1.1,3.3,1.6c3.3,1.1,7.6,1.7,12.2,1.7c4.6,0,8.9-0.6,12.2-1.7c1.4-0.5,2.5-1,3.3-1.6V371.3z M71.6,364.4
	c-3,1-7.1,1.6-11.4,1.6c-4,0-7.8-0.5-10.7-1.4l25.1-4.6c0.8,0.6,1.1,1.1,1.1,1.5C75.7,362.2,74.6,363.4,71.6,364.4z"/>
<path class="st0" d="M24.7,362.4c-0.1-0.1-0.1-0.1-0.2-0.1c-0.1,0-0.1-0.1-0.2-0.1c-0.1,0-0.1-0.1-0.2-0.1c-0.2,0-0.3,0-0.5,0
	c-0.1,0-0.1,0-0.2,0.1c-0.1,0-0.1,0.1-0.2,0.1c-0.1,0-0.1,0.1-0.2,0.1c-0.1,0.1-0.1,0.1-0.1,0.2c0,0.1-0.1,0.1-0.1,0.2
	c0,0.1-0.1,0.1-0.1,0.2c0,0.1,0,0.2,0,0.2c0,0.1,0,0.2,0,0.2c0,0.1,0,0.1,0.1,0.2c0,0.1,0.1,0.1,0.1,0.2c0,0.1,0.1,0.1,0.1,0.2
	c0.2,0.2,0.4,0.3,0.6,0.3c0.1,0,0.2,0,0.2,0c0.2,0,0.3,0,0.4-0.1c0.1,0,0.1-0.1,0.2-0.1c0.1,0,0.1-0.1,0.2-0.1
	c0.1-0.1,0.1-0.1,0.1-0.2c0-0.1,0.1-0.1,0.1-0.2c0-0.1,0.1-0.1,0.1-0.2c0-0.1,0-0.2,0-0.2C25,362.9,24.9,362.6,24.7,362.4z"/>
<path class="st0" d="M983.1,167.2v-5.4c0-0.7-0.6-1.3-1.3-1.3h-1v-9.1c0-0.7-0.6-1.3-1.3-1.3h-8.5c-0.7,0-1.3,0.6-1.3,1.3v9.1h-1
	c-0.7,0-1.3,0.6-1.3,1.3v5.4c-4.6,1.8-7.8,6.3-7.8,11.5v30c0,0.7,0.6,1.3,1.3,1.3h28.7c0.7,0,1.3-0.6,1.3-1.3v-30
	C991,173.5,987.7,169,983.1,167.2z M972.4,152.6h5.9v7.8h-5.9V152.6z M970.1,163h10.4v3.3h-10.4V163z M988.3,207.4h-26.1v-28.7
	c0-5.4,4.4-9.8,9.8-9.8h6.5c5.4,0,9.8,4.4,9.8,9.8V207.4z"/>
<path class="st0" d="M983.8,177.4h-17c-0.7,0-1.3,0.6-1.3,1.3v24.1c0,0.7,0.6,1.3,1.3,1.3h17c0.7,0,1.3-0.6,1.3-1.3v-8.2
	c0-0.7-0.6-1.3-1.3-1.3c-0.7,0-1.3,0.6-1.3,1.3v6.9h-14.3V180h14.3v4.1c0,0.7,0.6,1.3,1.3,1.3c0.7,0,1.3-0.6,1.3-1.3v-5.4
	C985.1,178,984.5,177.4,983.8,177.4z"/>
<path class="st0" d="M983.8,188.1c-0.7,0-1.3,0.6-1.3,1.3v0.1c0,0.7,0.6,1.3,1.3,1.3c0.7,0,1.3-0.6,1.3-1.3v-0.1
	C985.1,188.6,984.5,188.1,983.8,188.1z"/>
<path class="st0" d="M974,191.2c-2.2,0-3.9,1.8-3.9,3.9c0,2.2,1.8,3.9,3.9,3.9c2.2,0,3.9-1.8,3.9-3.9
	C977.9,192.9,976.2,191.2,974,191.2z M974,196.4c-0.7,0-1.3-0.6-1.3-1.3c0-0.7,0.6-1.3,1.3-1.3s1.3,0.6,1.3,1.3
	C975.3,195.8,974.7,196.4,974,196.4z"/>
<path class="st0" d="M980.8,186c0-2.2-1.8-3.9-3.9-3.9c-2.2,0-3.9,1.8-3.9,3.9c0,2.2,1.8,3.9,3.9,3.9
	C979.1,189.9,980.8,188.1,980.8,186z M976.9,187.3c-0.7,0-1.3-0.6-1.3-1.3c0-0.7,0.6-1.3,1.3-1.3c0.7,0,1.3,0.6,1.3,1.3
	C978.2,186.7,977.7,187.3,976.9,187.3z"/>
<path class="st0" d="M759,189.9l-2.9-19.2c0-5.6-3.4-10.8-9.3-14.2c-4.9-2.9-11.2-4.4-17.8-4.4s-12.9,1.6-17.8,4.4
	c-5.9,3.5-9.3,8.6-9.3,14.2l-2.9,19.2c0,0.1,0,0.1,0,0.2c0,5.6,3.8,10.9,10.3,14.4c5.4,2.8,12.4,4.4,19.7,4.4s14.3-1.6,19.7-4.4
	c6.6-3.5,10.3-8.7,10.3-14.4C759,190,759,189.9,759,189.9z M712.6,158.8c4.5-2.6,10.3-4.1,16.4-4.1s12,1.4,16.4,4.1
	c5.1,3,8,7.3,8,12c0,4.6-2.9,9-8,12c-4.5,2.6-10.3,4.1-16.4,4.1s-12-1.4-16.4-4.1c-5.1-3-8-7.3-8-12
	C704.6,166.1,707.5,161.8,712.6,158.8z M747.4,202c-5,2.6-11.5,4.1-18.4,4.1s-13.4-1.5-18.4-4.1c-5.6-3-8.8-7.3-8.9-11.8l1.9-12.6
	c1.6,2.9,4.1,5.5,7.6,7.5c4.9,2.9,11.2,4.4,17.8,4.4s12.9-1.6,17.8-4.4c3.4-2,6-4.6,7.6-7.5l1.9,12.6C756.2,194.7,753,199,747.4,202
	z"/>
<path class="st0" d="M729,184.1c9.4,0,17.6-3.6,20.5-9c0.8-1.4,1.1-2.8,1.1-4.3c0-3.7-2.4-7.1-6.6-9.6c-4-2.4-9.4-3.7-15-3.7
	c-5.7,0-11,1.3-15,3.7c-4.3,2.5-6.6,5.9-6.6,9.6c0,1.5,0.4,2.9,1.1,4.3C711.4,180.4,719.6,184.1,729,184.1z M729,181.3
	c-7.8,0-15-2.8-17.7-6.9c2.8-4.1,9.9-6.9,17.7-6.9s15,2.8,17.7,6.9C744,178.5,736.8,181.3,729,181.3z M710.1,170.8
	c0-2.7,1.9-5.3,5.3-7.3c3.6-2.1,8.5-3.3,13.7-3.3c5.2,0,10,1.2,13.7,3.3c3.4,2,5.3,4.6,5.3,7.3c0,0.2,0,0.5,0,0.7
	c-3.8-4.1-10.9-6.7-18.9-6.7s-15.1,2.6-18.9,6.7C710.1,171.2,710.1,171,710.1,170.8z"/>
<path class="st0" d="M729,191.8c-0.2,0-0.4,0-0.5,0.1c-0.2,0.1-0.3,0.2-0.5,0.3c-0.9,0.9-3.8,4.1-3.8,6.4c0,2.6,2.1,4.8,4.8,4.8
	s4.8-2.1,4.8-4.8c0-2.3-2.9-5.5-3.8-6.4c-0.1-0.1-0.3-0.2-0.5-0.3C729.4,191.8,729.2,191.8,729,191.8z M729,200.6c-1.1,0-2-0.9-2-2
	c0-0.6,1-2.1,2-3.4c1.1,1.3,2,2.8,2,3.4C731,199.7,730.1,200.6,729,200.6z"/>
<path class="st0" d="M722.9,173.9h-0.4c-0.8,0-1.4,0.6-1.4,1.4c0,0.8,0.6,1.4,1.4,1.4h0.4c0.8,0,1.4-0.6,1.4-1.4
	C724.2,174.5,723.6,173.9,722.9,173.9z"/>
<path class="st0" d="M739.1,173.9h-9.7c-0.8,0-1.4,0.6-1.4,1.4c0,0.8,0.6,1.4,1.4,1.4h9.7c0.8,0,1.4-0.6,1.4-1.4
	C740.4,174.5,739.8,173.9,739.1,173.9z"/>
<path class="st0" d="M523.2,158.8c-5.7-5.7-13.2-8.8-21.2-8.8s-15.5,3.1-21.2,8.8c-5.7,5.7-8.8,13.2-8.8,21.2s3.1,15.5,8.8,21.2
	c5.7,5.7,13.2,8.8,21.2,8.8s15.5-3.1,21.2-8.8c5.7-5.7,8.8-13.2,8.8-21.2S528.9,164.5,523.2,158.8z M482.6,199.4
	c-4.7-4.7-7.5-10.9-8-17.5c0.7,0,1.4,0.1,2.2,0.2c5.3,0.8,10.6,3.6,15,8c4.4,4.4,7.2,9.7,8,15c0.1,0.7,0.2,1.4,0.2,2.2
	C493.7,206.9,487.5,204.2,482.6,199.4z M502.7,207.4c0-0.9-0.1-1.7-0.2-2.6c-0.9-5.9-4-11.7-8.8-16.5c-4.8-4.8-10.6-7.9-16.5-8.8
	c-0.9-0.1-1.7-0.2-2.6-0.2c0-0.9,0.1-1.7,0.2-2.6c0.9,0,1.9,0.1,2.8,0.3c6.4,1,12.8,4.3,17.9,9.5c5.2,5.2,8.5,11.5,9.5,17.9
	c0.1,0.9,0.2,1.9,0.3,2.8C504.5,207.3,503.6,207.3,502.7,207.4z M521.4,199.4c-3.8,3.8-8.5,6.3-13.4,7.4c0-0.9-0.1-1.8-0.3-2.7
	c-1-7-4.7-13.8-10.2-19.4c-5.6-5.6-12.5-9.2-19.4-10.2c-0.9-0.1-1.8-0.2-2.8-0.3l0,0c1.1-5.1,3.6-9.7,7.4-13.4
	c3.7-3.7,8.1-6.1,12.8-7.2c0,1.1,0.1,2.2,0.3,3.2c1,7,4.7,13.8,10.2,19.4c5.6,5.6,12.5,9.2,19.4,10.2c1.1,0.2,2.1,0.3,3.2,0.3l0,0
	C527.4,191.4,525,195.8,521.4,199.4z M529.1,184c-1.1,0-2.2-0.1-3.4-0.3c-6.4-1-12.8-4.3-18-9.5c-5.2-5.2-8.5-11.5-9.5-17.9
	c-0.2-1.1-0.3-2.2-0.3-3.3c0.9-0.1,1.7-0.2,2.6-0.3c0,1,0.1,2.1,0.2,3.2c0.9,5.9,4,11.7,8.8,16.5c0.5,0.5,1.3,0.5,1.8,0
	c0.5-0.5,0.5-1.3,0-1.8c-4.4-4.4-7.2-9.7-8-15c-0.1-1-0.2-1.9-0.2-2.8c6.6,0.3,13.1,3,18.1,8c4.9,4.9,7.7,11.3,8,18.1
	c-0.9,0-1.9-0.1-2.8-0.2c-0.7-0.1-1.4,0.4-1.5,1.1c-0.1,0.7,0.4,1.4,1.1,1.5c1.1,0.2,2.1,0.2,3.2,0.2c0,0,0,0,0.1,0
	C529.3,182.2,529.2,183.1,529.1,184z"/>
<path class="st0" d="M518.2,175.8c-0.3,0-0.7,0.1-0.9,0.4c-0.2,0.2-0.4,0.6-0.4,0.9c0,0.3,0.1,0.7,0.4,0.9c0.2,0.2,0.6,0.4,0.9,0.4
	c0.3,0,0.7-0.1,0.9-0.4c0.2-0.2,0.4-0.6,0.4-0.9c0-0.3-0.1-0.7-0.4-0.9C518.8,175.9,518.5,175.8,518.2,175.8z"/>
<path class="st0" d="M302,162.7h-7v-0.2c0-3.6-3-6.6-6.6-6.6s-6.6,3-6.6,6.6v0.2h-8.2c-2.7,0-4.9,2.2-4.9,4.9v5.6h-7.4
	c-1.8,0-3.3,1.1-4,2.7c0,0,0,0,0,0.1l-4.3,12.9c0,0-0.1,0.1-0.1,0.1c-0.2,0.1-0.7,0.3-1.5,0.5c-1.2,0.3-2.4,1-3.1,2
	c-0.8,1-1.2,2.3-1.2,3.5v6.1c0,2,1.7,3.7,3.7,3.7h5.2c0.6,3,3.1,5.2,6.3,5.2s5.7-2.2,6.3-5.2h18.4c0.6,3,3.1,5.2,6.3,5.2
	c3.1,0,5.7-2.2,6.3-5.2h3.3c2.5,0,4.2-1.7,4.2-4.2v-30.5C306.9,163.4,303.5,162.7,302,162.7z M284.1,162.5c0-2.3,1.9-4.2,4.2-4.2
	c2.3,0,4.2,1.9,4.2,4.2v0.2h-8.5V162.5z M259.4,176.7c0.1-0.4,0.4-0.7,0.7-0.9c0.3-0.2,0.7-0.3,1.1-0.3h7.4v13.3h-13.2L259.4,176.7z
	 M262.2,207.7c-2.2,0-4-1.8-4-4c0,0,0-0.1,0-0.1c0,0,0-0.1,0-0.1c0,0,0,0,0,0c0.1-2.1,1.9-3.8,4-3.8c1.9,0,3.6,1.4,3.9,3.2l0,0
	c0,0.1,0,0.1,0,0.2l0,0c0,0,0,0.1,0,0.1c0,0,0,0,0,0.1c0,0,0,0.1,0,0.1c0,0,0,0.1,0,0.1c0,0,0,0.1,0,0.1c0,0,0,0.1,0,0.1
	C266.2,205.9,264.4,207.7,262.2,207.7z M293.1,207.7c-2.2,0-4-1.8-4-4c0-0.1,0-0.1,0-0.2c0,0,0,0,0-0.1c0,0,0-0.1,0-0.1
	c0,0,0-0.1,0-0.1c0,0,0,0,0,0c0-0.1,0-0.2,0.1-0.4c0,0,0,0,0,0c0.4-1.8,2-3.2,3.9-3.2c0.6,0,1.1,0.1,1.6,0.3c1.4,0.6,2.5,2,2.5,3.7
	C297.1,205.9,295.3,207.7,293.1,207.7z M302.7,202.5h-3.3c0,0,0,0,0-0.1c0-0.1-0.1-0.3-0.1-0.4c0-0.1,0-0.1,0-0.2c0,0,0-0.1,0-0.1
	c0-0.1,0-0.1-0.1-0.2c0,0,0-0.1,0-0.1c0-0.1-0.1-0.1-0.1-0.2c0,0,0,0,0-0.1c0-0.1-0.1-0.2-0.1-0.3c0,0,0,0,0,0
	c0-0.1-0.1-0.2-0.1-0.2c0,0,0-0.1,0-0.1c0-0.1-0.1-0.1-0.1-0.2c0,0,0-0.1-0.1-0.1c-0.1-0.1-0.1-0.2-0.2-0.2
	c-0.1-0.1-0.1-0.2-0.2-0.2c0,0-0.1-0.1-0.1-0.1c0,0,0-0.1-0.1-0.1c0-0.1-0.1-0.1-0.1-0.1c0,0,0,0-0.1-0.1c-0.1-0.1-0.1-0.1-0.2-0.2
	c0,0,0,0,0,0c-0.1-0.1-0.1-0.1-0.2-0.2c0,0,0,0,0,0c-0.1-0.1-0.1-0.1-0.2-0.1c0,0-0.1,0-0.1-0.1c0,0-0.1-0.1-0.1-0.1
	c0,0-0.1,0-0.1-0.1c-0.1-0.1-0.3-0.2-0.4-0.3c0,0-0.1,0-0.1-0.1c-0.1,0-0.1-0.1-0.2-0.1c0,0-0.1,0-0.1-0.1c-0.1,0-0.1-0.1-0.2-0.1
	c0,0-0.1,0-0.1,0c-0.1,0-0.2-0.1-0.2-0.1c0,0,0,0,0,0c-0.1,0-0.2-0.1-0.3-0.1c0,0-0.1,0-0.1,0c-0.1,0-0.1,0-0.2-0.1c0,0-0.1,0-0.1,0
	c-0.1,0-0.1,0-0.2-0.1c0,0-0.1,0-0.1,0c-0.1,0-0.2,0-0.3-0.1c-0.1,0-0.1,0-0.2,0c0,0-0.1,0-0.1,0c-0.1,0-0.1,0-0.2,0
	c0,0-0.1,0-0.1,0c-0.1,0-0.1,0-0.2,0c0,0-0.1,0-0.1,0c-0.1,0-0.2,0-0.3,0c-0.1,0-0.2,0-0.3,0c0,0-0.1,0-0.1,0c-0.1,0-0.1,0-0.2,0
	c0,0-0.1,0-0.1,0c-0.1,0-0.1,0-0.2,0c0,0-0.1,0-0.1,0c-0.1,0-0.2,0-0.3,0.1c-0.1,0-0.1,0-0.2,0c0,0-0.1,0-0.1,0c-0.1,0-0.1,0-0.2,0
	c0,0-0.1,0-0.1,0c-0.1,0-0.1,0-0.2,0.1c0,0-0.1,0-0.1,0c-0.1,0-0.2,0.1-0.3,0.1c0,0,0,0,0,0c-0.1,0-0.1,0.1-0.2,0.1c0,0-0.1,0-0.1,0
	c-0.1,0-0.1,0.1-0.2,0.1c0,0-0.1,0-0.1,0.1c-0.1,0-0.1,0.1-0.2,0.1c-0.1,0.1-0.2,0.1-0.3,0.2c0,0-0.1,0.1-0.1,0.1c0,0-0.1,0-0.1,0.1
	c0,0-0.1,0.1-0.1,0.1c0,0-0.1,0-0.1,0.1c-0.1,0-0.1,0.1-0.2,0.1c0,0,0,0-0.1,0.1c-0.1,0.1-0.1,0.1-0.2,0.2c0,0,0,0,0,0.1
	c-0.1,0.1-0.1,0.1-0.1,0.2c0,0,0,0.1-0.1,0.1c0,0-0.1,0.1-0.1,0.1c0,0,0,0.1-0.1,0.1c0,0-0.1,0.1-0.1,0.1c-0.1,0.1-0.2,0.2-0.2,0.3
	c0,0-0.1,0.1-0.1,0.1c0,0,0,0.1-0.1,0.1c0,0.1-0.1,0.1-0.1,0.2c0,0,0,0.1-0.1,0.1c0,0.1-0.1,0.1-0.1,0.2c0,0,0,0,0,0.1
	c0,0.1-0.1,0.2-0.1,0.3c0,0,0,0.1,0,0.1c0,0.1-0.1,0.1-0.1,0.2c0,0,0,0.1,0,0.1c0,0.1,0,0.1-0.1,0.2c0,0,0,0.1,0,0.1
	c0,0.1-0.1,0.2-0.1,0.3c0,0.1,0,0.1,0,0.2c0,0,0,0.1,0,0.1c0,0,0,0,0,0.1l-18.4,0c0,0,0,0,0-0.1c0,0,0-0.1,0-0.1
	c0-0.2-0.1-0.3-0.1-0.5c0,0,0-0.1,0-0.1c0-0.1,0-0.1-0.1-0.2c0,0,0-0.1,0-0.1c0-0.1-0.1-0.1-0.1-0.2c0,0,0-0.1,0-0.1
	c0-0.1-0.1-0.2-0.1-0.3c0,0,0,0,0-0.1c0-0.1-0.1-0.1-0.1-0.2c0,0,0-0.1-0.1-0.1c0-0.1-0.1-0.1-0.1-0.2c0,0,0-0.1-0.1-0.1
	c0-0.1-0.1-0.1-0.1-0.1c-0.1-0.1-0.2-0.2-0.2-0.3c0,0-0.1-0.1-0.1-0.1c0,0,0-0.1-0.1-0.1c0,0-0.1-0.1-0.1-0.1c0,0,0-0.1-0.1-0.1
	c0-0.1-0.1-0.1-0.1-0.2c0,0,0,0-0.1-0.1c-0.1-0.1-0.1-0.1-0.2-0.2c0,0,0,0-0.1-0.1c-0.1,0-0.1-0.1-0.2-0.1c0,0-0.1,0-0.1-0.1
	c0,0-0.1-0.1-0.1-0.1c0,0-0.1,0-0.1-0.1c0,0-0.1-0.1-0.1-0.1c-0.1-0.1-0.2-0.1-0.2-0.2c0,0-0.1,0-0.1-0.1c0,0-0.1-0.1-0.2-0.1
	c0,0-0.1,0-0.1-0.1c-0.1,0-0.1-0.1-0.2-0.1c0,0-0.1,0-0.1,0c-0.1,0-0.1-0.1-0.2-0.1c0,0,0,0,0,0c-0.1,0-0.2-0.1-0.3-0.1
	c0,0-0.1,0-0.1,0c-0.1,0-0.1,0-0.2-0.1c0,0-0.1,0-0.1,0c-0.1,0-0.1,0-0.2,0c0,0-0.1,0-0.1,0c-0.2,0-0.3-0.1-0.5-0.1c0,0-0.1,0-0.1,0
	c-0.1,0-0.1,0-0.2,0c0,0-0.1,0-0.1,0c-0.1,0-0.1,0-0.2,0c0,0-0.1,0-0.1,0c-0.1,0-0.2,0-0.3,0c-0.1,0-0.2,0-0.3,0c0,0-0.1,0-0.1,0
	c-0.1,0-0.1,0-0.2,0c0,0-0.1,0-0.1,0c-0.1,0-0.1,0-0.2,0c0,0-0.1,0-0.1,0c-0.1,0-0.2,0-0.3,0.1c-0.1,0-0.1,0-0.2,0c0,0-0.1,0-0.1,0
	c-0.1,0-0.1,0-0.2,0c0,0-0.1,0-0.1,0c-0.1,0-0.1,0-0.2,0.1c0,0-0.1,0-0.1,0c-0.1,0-0.2,0.1-0.3,0.1c0,0,0,0-0.1,0
	c-0.1,0-0.1,0.1-0.2,0.1c0,0-0.1,0-0.1,0c-0.1,0-0.1,0.1-0.2,0.1c0,0-0.1,0-0.1,0.1c-0.1,0-0.1,0.1-0.1,0.1
	c-0.1,0.1-0.2,0.1-0.2,0.2c0,0-0.1,0-0.1,0.1c0,0-0.1,0.1-0.1,0.1c0,0-0.1,0-0.1,0.1c0,0-0.1,0.1-0.1,0.1c0,0-0.1,0-0.1,0.1
	c-0.1,0-0.1,0.1-0.1,0.1c0,0,0,0-0.1,0.1c-0.1,0.1-0.1,0.1-0.2,0.2c0,0,0,0-0.1,0.1c0,0-0.1,0.1-0.1,0.1c0,0-0.1,0.1-0.1,0.1
	c0,0-0.1,0.1-0.1,0.1c0,0-0.1,0.1-0.1,0.1c0,0-0.1,0.1-0.1,0.1c-0.1,0.1-0.1,0.2-0.2,0.2c0,0,0,0.1-0.1,0.1c0,0-0.1,0.1-0.1,0.1
	c0,0,0,0.1-0.1,0.1c0,0.1-0.1,0.1-0.1,0.2c0,0,0,0.1-0.1,0.1c0,0.1-0.1,0.1-0.1,0.2c0,0,0,0,0,0.1c0,0.1-0.1,0.2-0.1,0.3
	c0,0,0,0.1,0,0.1c0,0.1,0,0.1-0.1,0.2c0,0,0,0.1,0,0.1c0,0.1,0,0.1-0.1,0.2c0,0,0,0.1,0,0.1c0,0.1,0,0.1,0,0.2c0,0.1,0,0.2-0.1,0.3
	c0,0,0,0.1,0,0.1c0,0,0,0,0,0.1h-5.2c-0.8,0-1.4-0.6-1.4-1.4V195c0-0.8,0.3-1.5,0.7-2.1c0.5-0.6,1.1-1,1.9-1.2
	c0.7-0.2,1.2-0.3,1.7-0.6h42.6c0.6,0,1.2-0.5,1.2-1.2c0-0.6-0.5-1.2-1.2-1.2H271v-21.2c0-1.4,1.2-2.6,2.6-2.6H302
	c2.2,0,2.6,3.1,2.6,5v30.5C304.6,202.2,303.4,202.5,302.7,202.5z"/>
<path class="st0" d="M297.4,174.8c0-1.5-1.1-2.8-2.5-3.2c0-0.1,0-0.2,0-0.2c0-1-0.3-1.9-1-2.6c-0.7-0.7-1.6-1.1-2.6-1.1
	c-1.2,0-2.2,0.6-2.9,1.5c-0.7-0.9-1.7-1.5-2.9-1.5c-1,0-1.9,0.4-2.6,1.1c-0.7,0.7-1,1.6-1,2.6c0,0.1,0,0.2,0,0.3
	c-1.4,0.3-2.5,1.6-2.5,3.2c0,1.3,0.8,2.4,1.9,2.9c-0.8,1-1.2,2.2-1.2,3.5c0,3.1,2.5,5.6,5.6,5.6c1,0,2-0.3,2.8-0.8
	c0.9,0.5,1.8,0.8,2.8,0.8c3.1,0,5.5-2.5,5.5-5.6c0-1.3-0.5-2.5-1.2-3.5C296.7,177.2,297.4,176.1,297.4,174.8z M291.3,170.1
	c0.4,0,0.7,0.1,0.9,0.4c0.2,0.2,0.3,0.5,0.3,0.9c0,0.7-0.6,1.3-1.3,1.3c-0.2,0-0.4,0-0.5-0.1c0,0,0,0-0.1,0
	c-0.1-0.1-0.2-0.1-0.3-0.2c-0.2-0.2-0.4-0.6-0.4-0.9C290,170.7,290.6,170.1,291.3,170.1z M284.5,170.5c0.1-0.1,0.3-0.2,0.4-0.3
	c0.2-0.1,0.3-0.1,0.5-0.1c0.7,0,1.3,0.6,1.3,1.3c0,0.2,0,0.3-0.1,0.5c-0.1,0.2-0.2,0.3-0.3,0.4c-0.1,0.1-0.2,0.2-0.3,0.2
	c0,0-0.1,0-0.1,0.1c-0.2,0.1-0.3,0.1-0.5,0.1c-0.7,0-1.3-0.6-1.3-1.3C284.2,171,284.3,170.7,284.5,170.5z M281.7,174.8
	c0-0.5,0.4-0.9,0.9-0.9s0.9,0.4,0.9,0.9c0,0.1,0,0.2,0,0.3c0,0.1-0.1,0.1-0.1,0.2c-0.2,0.3-0.4,0.4-0.8,0.4
	C282.1,175.7,281.7,175.3,281.7,174.8z M291.2,184.4c-0.8,0-1.5-0.3-2.1-0.8c-0.2-0.2-0.5-0.3-0.8-0.3c-0.3,0-0.6,0.1-0.8,0.3
	c-0.6,0.5-1.3,0.8-2.1,0.8c-1.8,0-3.2-1.4-3.2-3.2c0-1.3,0.8-2.6,2.1-3c0.2-0.1,0.4-0.2,0.5-0.4c0.1-0.2,0.2-0.4,0.2-0.6
	c0-0.3,0.1-0.6,0.2-0.9c0-0.1,0.1-0.2,0.1-0.2c0.3-0.6,0.8-1.1,1.4-1.4c0.1,0,0.1,0,0.2-0.1c0.4-0.2,0.8-0.3,1.3-0.3
	c0.5,0,0.9,0.1,1.3,0.3c0,0,0.1,0,0.2,0.1c0.6,0.3,1.1,0.8,1.4,1.4c0,0.1,0.1,0.2,0.1,0.2c0.1,0.3,0.2,0.6,0.2,0.9
	c0,0.2,0.1,0.4,0.2,0.6c0.1,0.2,0.3,0.3,0.5,0.4c1.3,0.5,2.1,1.7,2.1,3C294.4,183,293,184.4,291.2,184.4z M294.2,175.7
	c-0.3,0-0.6-0.2-0.8-0.4c0-0.1-0.1-0.1-0.1-0.2c0-0.1,0-0.2,0-0.3c0-0.5,0.4-0.9,0.9-0.9c0.5,0,0.9,0.4,0.9,0.9
	C295.1,175.3,294.7,175.7,294.2,175.7z"/>
<path class="st0" d="M302,189.8c0-0.1,0-0.1-0.1-0.2c0-0.1-0.1-0.1-0.1-0.2c0-0.1-0.1-0.1-0.1-0.2c-0.1-0.1-0.1-0.1-0.2-0.1
	c-0.1-0.1-0.3-0.1-0.4-0.2c-0.1,0-0.3,0-0.5,0c-0.1,0-0.1,0-0.2,0.1c-0.1,0-0.1,0.1-0.2,0.1c-0.1,0-0.1,0.1-0.2,0.1
	c-0.1,0.1-0.1,0.1-0.1,0.2c0,0.1-0.1,0.1-0.1,0.2c0,0.1-0.1,0.1-0.1,0.2c0,0.1,0,0.2,0,0.2s0,0.2,0,0.2c0,0.1,0,0.1,0.1,0.2
	c0,0.1,0.1,0.1,0.1,0.2s0.1,0.1,0.1,0.2c0.1,0.1,0.1,0.1,0.2,0.1c0.1,0,0.1,0.1,0.2,0.1c0.1,0,0.1,0.1,0.2,0.1c0.1,0,0.2,0,0.2,0
	s0.2,0,0.2,0c0.1,0,0.1,0,0.2-0.1c0.1,0,0.1-0.1,0.2-0.1c0.1,0,0.1-0.1,0.2-0.1c0.1-0.1,0.1-0.1,0.1-0.2s0.1-0.1,0.1-0.2
	c0-0.1,0.1-0.1,0.1-0.2c0-0.1,0-0.2,0-0.2S302,189.9,302,189.8z"/>
<path class="st0" d="M288.4,150c-0.6,0-1.2,0.5-1.2,1.2v2c0,0.6,0.5,1.2,1.2,1.2s1.2-0.5,1.2-1.2v-2C289.6,150.5,289,150,288.4,150z
	"/>
<path class="st0" d="M283.5,154.6l-1.6-1.3c-0.1-0.1-0.3-0.2-0.4-0.2c-0.1,0-0.3-0.1-0.5,0c-0.2,0-0.3,0.1-0.4,0.1
	c-0.1,0.1-0.3,0.2-0.3,0.3c-0.4,0.5-0.3,1.2,0.2,1.6l1.6,1.3c0.2,0.2,0.5,0.3,0.7,0.3c0.2,0,0.4,0,0.5-0.1c0.2-0.1,0.3-0.2,0.4-0.3
	C284.1,155.7,284,155,283.5,154.6z"/>
<path class="st0" d="M296.6,153.5c-0.4-0.5-1.1-0.6-1.6-0.2l-1.6,1.3c-0.5,0.4-0.6,1.1-0.2,1.6c0.1,0.1,0.3,0.3,0.4,0.3
	c0.2,0.1,0.3,0.1,0.5,0.1c0.3,0,0.5-0.1,0.7-0.3l1.6-1.3C296.9,154.7,297,154,296.6,153.5z"/>
<path class="st0" d="M63.9,175.5l-5.8-15.8v-8.3c0-0.8-0.6-1.4-1.4-1.4H25.3c-0.8,0-1.4,0.6-1.4,1.4v8.3l-5.8,15.8
	c-0.7,1.9-1,3.8-1,5.8v23.8c0,2.7,2.2,4.9,4.9,4.9h38c2.7,0,4.9-2.2,4.9-4.9v-23.8C64.9,179.3,64.6,177.4,63.9,175.5z M26.7,152.9
	h28.6v5.7H26.7V152.9z M62.1,200.1H41.9c-0.8,0-1.4,0.6-1.4,1.4s0.6,1.4,1.4,1.4h20.2v2.1c0,1.1-0.9,2.1-2.1,2.1H22
	c-1.1,0-2.1-0.9-2.1-2.1v-23.8c0-1.7,0.3-3.3,0.9-4.8l5.5-15h29.4l5.5,15c0.6,1.6,0.9,3.2,0.9,4.8L62.1,200.1z"/>
<path class="st0" d="M46.6,183.8c-0.5-2.9-3-5.2-6.1-5.2s-5.6,2.2-6.1,5.2c-2.4,1-4,3.5-3.8,6.2c0.2,3,2.7,5.4,5.7,5.6
	c1.2,0.1,2.3-0.2,3.3-0.7c0.6-0.3,1.2-0.3,1.8,0c0.9,0.5,1.9,0.7,2.9,0.7c0.2,0,0.3,0,0.5,0c3-0.2,5.4-2.7,5.7-5.6
	C50.6,187.3,49,184.8,46.6,183.8z M47.6,189.7c-0.1,1.6-1.4,2.9-3,3c-0.6,0-1.2-0.1-1.8-0.4c-0.7-0.4-1.4-0.5-2.2-0.5
	c-0.8,0-1.5,0.2-2.2,0.5c-0.5,0.3-1.2,0.4-1.8,0.4c-1.6-0.1-2.9-1.4-3-3c-0.1-1.6,1-3.1,2.6-3.5c0.3-0.1,0.6-0.2,0.8-0.5
	c0.2-0.3,0.3-0.6,0.3-0.9l0-0.1c0-1.8,1.5-3.3,3.3-3.3c1.8,0,3.3,1.5,3.3,3.3l0,0.1c0,0.3,0.1,0.7,0.3,0.9c0.2,0.3,0.5,0.4,0.8,0.5
	C46.6,186.6,47.7,188.1,47.6,189.7z"/>
<path class="st0" d="M40.6,175.8c2.6,0,4.6-2.1,4.6-4.6s-2.1-4.6-4.6-4.6c-2.6,0-4.6,2.1-4.6,4.6S38,175.8,40.6,175.8z M40.6,169.3
	c1,0,1.8,0.8,1.8,1.8s-0.8,1.8-1.8,1.8c-1,0-1.8-0.8-1.8-1.8S39.6,169.3,40.6,169.3z"/>
<path class="st0" d="M35.2,176.7c0-2.6-2.1-4.6-4.6-4.6s-4.6,2.1-4.6,4.6c0,2.6,2.1,4.6,4.6,4.6S35.2,179.2,35.2,176.7z M30.6,178.4
	c-1,0-1.8-0.8-1.8-1.8s0.8-1.8,1.8-1.8s1.8,0.8,1.8,1.8S31.5,178.4,30.6,178.4z"/>
<path class="st0" d="M50.6,172c-2.6,0-4.6,2.1-4.6,4.6c0,2.6,2.1,4.6,4.6,4.6c2.6,0,4.6-2.1,4.6-4.6C55.2,174.1,53.1,172,50.6,172z
	 M50.6,178.4c-1,0-1.8-0.8-1.8-1.8s0.8-1.8,1.8-1.8c1,0,1.8,0.8,1.8,1.8S51.5,178.4,50.6,178.4z"/>
<path class="st0" d="M35.7,200.1h-0.3c-0.8,0-1.4,0.6-1.4,1.4s0.6,1.4,1.4,1.4h0.3c0.8,0,1.4-0.6,1.4-1.4
	C37.1,200.8,36.5,200.1,35.7,200.1z"/>
<path class="st1" d="M904,23v2h-11v2l-3-3l3-3v2H904z"/>
<path class="st2" d="M971,64.5v-2h11v-2l3,3l-3,3v-2H971z"/>
<path class="st2" d="M904,62.5v2h-11v2l-3-3l3-3v2H904z"/>
</svg>
