<svg width="1026" height="452" viewBox="0 0 1026 452" fill="none" xmlns="http://www.w3.org/2000/svg">
<g clip-path="url(#clip0)">
<path d="M524.9 8.9L522.5 2.9C522.5 2.8 522.4 2.7 522.3 2.6C522.2 2.5 522.1 2.5 522 2.4L519.1 1.6C510.5 -0.7 499.4 -0.7 490.9 1.6L488 2.5C487.9 2.5 487.8 2.6 487.7 2.7C487.6 2.8 487.6 2.9 487.5 3L485.1 9C485 9.2 485 9.3 485.1 9.5L486.1 12.3C486.2 12.5 486.3 12.6 486.4 12.7C486.5 12.8 486.7 12.8 486.9 12.8L496.2 10.9C496.3 10.9 496.5 10.8 496.6 10.7C496.7 10.6 496.8 10.5 496.8 10.3L497.6 5.4C502 4.3 508.3 4.3 512.8 5.4L513.6 10.3C513.6 10.4 513.7 10.6 513.8 10.7C513.9 10.8 514 10.9 514.2 10.9L523.5 12.8C523.7 12.8 523.8 12.8 524 12.7C524.1 12.6 524.3 12.5 524.3 12.3L525.3 9.5C525 9.2 525 9.1 524.9 8.9ZM487.1 11.1L486.6 9.7L495.6 7.8L495.3 9.5L487.1 11.1ZM496.6 4.1C496.5 4.1 496.4 4.2 496.3 4.3C496.2 4.4 496.2 4.5 496.1 4.7L495.8 6.3L486.8 8.2L488.6 3.8L491.2 3.1C499.6 0.9 510.4 0.9 518.7 3.1L521.3 3.8L523.1 8.2L514.1 6.3L513.8 4.7C513.8 4.6 513.7 4.4 513.6 4.3C513.5 4.2 513.4 4.1 513.3 4.1C508.6 2.7 501.4 2.7 496.6 4.1ZM522.9 11.1L514.7 9.4L514.4 7.7L523.4 9.6L522.9 11.1Z" fill="#F1CDB3"/>
<path d="M518.3 13.1C518.3 13 518.2 12.8 518.1 12.7C518 12.6 517.9 12.5 517.8 12.5L513 11.5L512.4 7.49999C512.4 7.29999 512.3 7.19999 512.2 7.09999C512.1 6.99999 511.9 6.89999 511.7 6.89999H509.8V5.99999C509.8 5.59999 509.5 5.29999 509.1 5.29999C508.7 5.29999 508.4 5.59999 508.4 5.99999V6.89999H501.6V5.99999C501.6 5.59999 501.3 5.29999 500.9 5.29999C500.5 5.29999 500.2 5.59999 500.2 5.99999V6.89999H498.3C498.1 6.89999 498 6.99999 497.8 7.09999C497.7 7.19999 497.6 7.39999 497.6 7.49999L497 11.5L492.2 12.5C492.1 12.5 491.9 12.6 491.9 12.7C491.8 12.8 491.7 12.9 491.7 13.1L488.5 28.1C488.5 28.2 488.5 28.2 488.5 28.3V31.3C488.5 31.5 488.6 31.7 488.7 31.8C488.8 31.9 489 32 489.2 32H520.9C521.1 32 521.3 31.9 521.4 31.8C521.5 31.7 521.6 31.5 521.6 31.3V28.3C521.6 28.2 521.6 28.2 521.6 28.1L518.3 13.1ZM493 13.9L497.8 12.8C497.9 12.8 498.1 12.7 498.2 12.6C498.3 12.5 498.4 12.4 498.4 12.2L499 8.29999H511.2L511.8 12.2C511.8 12.3 511.9 12.5 512 12.6C512.1 12.7 512.2 12.8 512.4 12.8L517.2 13.9L520.2 27.5H490L493 13.9ZM496.8 29L495.9 30.6H494.8L495.7 29H496.8ZM498.4 29H513.7L512.8 30.6H497.5L498.4 29ZM489.9 29H494.2L493.3 30.6H489.9V29V29ZM514.4 30.6L515.3 29H520.2V30.6H514.4Z" fill="#F1CDB3"/>
<path d="M505 26.2C509.1 26.2 512.5 22.7 512.5 18.5C512.5 14.2 509.1 10.8 505 10.8C500.9 10.8 497.5 14.3 497.5 18.5C497.5 22.7 500.9 26.2 505 26.2ZM505 12.2C508.4 12.2 511.1 15 511.1 18.5C511.1 22 508.4 24.8 505 24.8C501.6 24.8 498.9 22 498.9 18.5C498.9 15 501.6 12.2 505 12.2Z" fill="#F1CDB3"/>
<path d="M505 21.2C506.5 21.2 507.7 20 507.7 18.5C507.7 17 506.5 15.8 505 15.8C503.5 15.8 502.3 17 502.3 18.5C502.3 20 503.5 21.2 505 21.2ZM505 17.2C505.7 17.2 506.3 17.8 506.3 18.5C506.3 19.2 505.7 19.8 505 19.8C504.3 19.8 503.7 19.2 503.7 18.5C503.7 17.7 504.3 17.2 505 17.2Z" fill="#F1CDB3"/>
<path d="M316.3 9H277.7C277.5 9 277.3 9.1 277.2 9.2C277.1 9.3 277 9.5 277 9.7V34.3C277 34.5 277.1 34.7 277.2 34.8C277.3 34.9 277.5 35 277.7 35H316.3C316.5 35 316.7 34.9 316.8 34.8C316.9 34.7 317 34.5 317 34.3V9.7C317 9.5 316.9 9.3 316.8 9.2C316.7 9.1 316.5 9 316.3 9ZM309.6 24C309.7 24.5 309.8 25 309.7 25.3C309.5 25.6 309 25.7 308.6 25.9C308.2 26 307.8 26.1 307.5 26.4C307.2 26.6 306.9 26.9 306.6 27.1C306.2 27.5 305.8 27.8 305.5 27.8C305.2 27.8 304.8 27.4 304.4 27.1C304.1 26.8 303.8 26.6 303.5 26.4C303.1 26.2 302.8 26.1 302.4 25.9C301.9 25.7 301.4 25.6 301.3 25.3C301.2 25 301.3 24.5 301.4 24C301.5 23.6 301.6 23.2 301.6 22.7C301.6 22.3 301.5 21.9 301.4 21.4C301.3 20.9 301.2 20.4 301.3 20.1C301.5 19.8 302 19.7 302.4 19.5C302.8 19.4 303.2 19.3 303.5 19C303.8 18.8 304.1 18.5 304.4 18.3C304.8 17.9 305.2 17.6 305.5 17.6C305.8 17.6 306.2 18 306.6 18.3C306.9 18.6 307.2 18.8 307.5 19C307.9 19.2 308.2 19.3 308.6 19.5C309.1 19.7 309.6 19.8 309.7 20.1C309.8 20.4 309.7 20.9 309.6 21.4C309.5 21.8 309.4 22.2 309.4 22.7C309.4 23.2 309.5 23.6 309.6 24ZM307.6 17.7C307.5 17.6 307.5 17.6 307.4 17.5C306.9 17 306.2 16.4 305.4 16.4C304.6 16.4 303.9 17 303.4 17.5C303.2 17.7 302.9 17.9 302.7 18.1C302.5 18.2 302.2 18.3 301.9 18.4C301.2 18.6 300.4 18.9 300 19.6C299.6 20.3 299.8 21.1 299.9 21.9C300 22.2 300 22.6 300 22.9C300 23.2 299.9 23.5 299.9 23.9C299.8 24.5 299.6 25.2 299.8 25.9L297 28.8L279.3 10.6H314.7L307.6 17.7ZM288.7 22L278.4 32.6V11.4L288.7 22ZM289.7 23L296.5 30C296.6 30.1 296.6 30.1 296.7 30.2C296.8 30.2 296.9 30.3 297 30.3C297.1 30.3 297.2 30.3 297.3 30.2C297.4 30.2 297.5 30.1 297.5 30L300.7 26.7C301.1 26.9 301.5 27 301.8 27.2C302.1 27.3 302.4 27.4 302.6 27.5C302.8 27.6 303 27.8 303.3 28.1C303.8 28.6 304.5 29.2 305.3 29.2C306.1 29.2 306.8 28.6 307.3 28.1C307.5 27.9 307.8 27.7 308 27.5C308.1 27.4 308.3 27.4 308.5 27.3L314.6 33.6H279.2L289.7 23ZM310 26.8C310.3 26.6 310.7 26.4 310.9 26C311.3 25.3 311.1 24.5 311 23.7C310.9 23.4 310.9 23 310.9 22.7C310.9 22.4 311 22.1 311 21.7C311.2 21 311.3 20.2 310.9 19.4C310.5 18.7 309.7 18.4 309 18.2H308.9L315.7 11.2V32.4L310 26.8Z" fill="#F1CDB3"/>
<path d="M305.4 19.2C303.5 19.2 301.9 20.8 301.9 22.7C301.9 24.7 303.5 26.2 305.4 26.2C307.3 26.2 308.9 24.6 308.9 22.7C308.9 20.8 307.3 19.2 305.4 19.2ZM305.4 24.9C304.2 24.9 303.3 23.9 303.3 22.8C303.3 21.6 304.2 20.7 305.4 20.7C306.6 20.7 307.5 21.7 307.5 22.8C307.5 24 306.5 24.9 305.4 24.9Z" fill="#F1CDB3"/>
<path d="M971 25V23H982V21L985 24L982 27V25H971Z" fill="#292929"/>
<path d="M56 38H34C31.8 38 30 36.2 30 34V19C30 16.8 31.8 15 34 15H56C58.2 15 60 16.8 60 19V34C60 36.2 58.2 38 56 38ZM34 16.1C32.4 16.1 31.1 17.4 31.1 19V34C31.1 35.6 32.4 36.9 34 36.9H56C57.6 36.9 58.9 35.6 58.9 34V19C58.9 17.4 57.6 16.1 56 16.1H34ZM50.7 18.4C52.1 18.4 53.3 19.6 53.3 21C53.3 22.4 52.1 23.6 50.7 23.6C49.3 23.6 48.1 22.4 48.1 21C48.1 19.6 49.3 18.4 50.7 18.4ZM54.3 18.4C55.7 18.4 56.9 19.6 56.9 21C56.9 22.4 55.7 23.6 54.3 23.6C52.9 23.6 51.7 22.4 51.7 21C51.7 19.6 52.9 18.4 54.3 18.4ZM33.1 31.3H37.9V33H33.1V31.3ZM39.4 31.3H44.2V33H39.4V31.3ZM45.8 31.3H50.6V33H45.8V31.3ZM52.1 31.3H56.9V33H52.1V31.3ZM33.1 18.4H42.1V20.1H33.1V18.4ZM33.1 21.8H37.9V23.5H33.1V21.8Z" fill="#292929"/>
<path d="M729 0C722.9 0 718 4.8 718 10.7C718 12.5 718.5 14.2 719.3 15.8L728.4 31.7C728.5 31.9 728.8 32 729 32C729.2 32 729.5 31.9 729.6 31.7L738.7 15.8C739.6 14.3 740 12.5 740 10.7C740 4.8 735.1 0 729 0ZM737.5 15.1L729 30L720.5 15.1C719.7 13.7 719.3 12.2 719.3 10.7C719.3 5.6 723.6 1.4 728.9 1.4C734.2 1.4 738.5 5.6 738.5 10.7C738.6 12.2 738.2 13.7 737.5 15.1Z" fill="#F1CDB3"/>
<path d="M729 5.29999C726 5.29999 723.5 7.69999 723.5 10.6C723.5 13.5 726 15.9 729 15.9C732 15.9 734.5 13.5 734.5 10.6C734.5 7.69999 732 5.29999 729 5.29999ZM729 14.7C726.7 14.7 724.9 12.9 724.9 10.7C724.9 8.49999 726.7 6.69999 729 6.69999C731.3 6.69999 733.1 8.49999 733.1 10.7C733.1 12.9 731.3 14.7 729 14.7Z" fill="#F1CDB3"/>
<path d="M763 353L736 333.3C735.8 333.2 735.6 333.1 735.3 333.1C735.1 333.1 734.8 333.2 734.6 333.3L707.6 353C707.1 353.4 707 354.1 707.3 354.6L710.8 359.4C710.9 359.5 711 359.6 711.1 359.7C711.2 359.8 711.4 359.8 711.5 359.9C711.7 359.9 711.8 359.9 712 359.9C712.1 359.9 712.3 359.8 712.4 359.7L713.5 358.9V391.8C713.5 392.4 714 393 714.7 393H755.8C756.4 393 757 392.5 757 391.8V358.9L758 359.6C758.1 359.7 758.3 359.8 758.4 359.8C758.6 359.8 758.7 359.8 758.9 359.8C759.1 359.8 759.2 359.7 759.3 359.6C759.4 359.5 759.5 359.4 759.6 359.3L763.1 354.5C763.6 354.1 763.5 353.3 763 353ZM754.7 386.1H727C726.4 386.1 725.8 386.6 725.8 387.3C725.8 387.9 726.3 388.5 727 388.5H754.7V390.7H715.9V358.1H743.3C743.9 358.1 744.5 357.6 744.5 356.9C744.5 356.3 744 355.7 743.3 355.7H717.8L735.2 343L754.6 357.2V386.1H754.7ZM758.5 357.1L736 340.6C735.8 340.5 735.6 340.4 735.3 340.4C735.1 340.4 734.8 340.5 734.6 340.6L712.1 357.1L710 354.2L735.3 335.7L760.6 354.2L758.5 357.1Z" fill="#F1CDB3"/>
<path d="M748.8 356.7C748.8 356.6 748.8 356.6 748.7 356.5C748.7 356.4 748.6 356.4 748.6 356.3C748.6 356.2 748.5 356.2 748.5 356.1C748.3 355.9 748 355.8 747.7 355.8C747.4 355.8 747.1 355.9 746.9 356.1C746.8 356.2 746.8 356.2 746.8 356.3C746.8 356.4 746.7 356.4 746.7 356.5C746.7 356.6 746.6 356.6 746.6 356.7C746.6 356.8 746.6 356.9 746.6 356.9C746.6 357 746.6 357.1 746.6 357.1C746.6 357.2 746.6 357.2 746.7 357.3C746.7 357.4 746.8 357.4 746.8 357.5C746.8 357.6 746.9 357.6 746.9 357.7C747 357.8 747 357.8 747.1 357.8C747.2 357.8 747.2 357.9 747.3 357.9C747.4 357.9 747.4 358 747.5 358C747.6 358 747.7 358 747.7 358H747.9C748 358 748 358 748.1 357.9C748.2 357.9 748.2 357.8 748.3 357.8C748.4 357.8 748.4 357.7 748.5 357.7C748.6 357.6 748.6 357.6 748.6 357.5C748.6 357.4 748.7 357.4 748.7 357.3C748.7 357.2 748.8 357.2 748.8 357.1C748.8 357 748.8 356.9 748.8 356.9C748.8 356.9 748.8 356.8 748.8 356.7Z" fill="#F1CDB3"/>
<path d="M723.9 387C723.9 386.9 723.9 386.9 723.8 386.8C723.8 386.7 723.7 386.7 723.7 386.6C723.7 386.5 723.6 386.5 723.6 386.4C723.5 386.3 723.5 386.3 723.4 386.3C723.3 386.2 723.1 386.2 723 386.1C722.8 386.1 722.7 386.1 722.5 386.1C722.4 386.1 722.4 386.1 722.3 386.2C722.2 386.2 722.2 386.3 722.1 386.3C722 386.3 722 386.4 721.9 386.4C721.8 386.5 721.8 386.5 721.8 386.6C721.7 386.7 721.7 386.9 721.6 387C721.6 387.1 721.6 387.2 721.6 387.2C721.6 387.4 721.6 387.5 721.7 387.6C721.7 387.7 721.8 387.7 721.8 387.8C721.8 387.9 721.9 387.9 721.9 388C722 388.1 722 388.1 722.1 388.1C722.2 388.1 722.2 388.2 722.3 388.2C722.4 388.2 722.4 388.3 722.5 388.3C722.6 388.3 722.7 388.3 722.7 388.3C722.9 388.3 723.2 388.2 723.4 388.1C723.5 388.1 723.5 388 723.6 388C723.7 387.9 723.7 387.9 723.7 387.8C723.8 387.6 723.9 387.4 723.9 387.1C723.9 387.2 723.9 387.1 723.9 387Z" fill="#F1CDB3"/>
<path d="M749.8 363.6C749.8 362.6 749.4 361.7 748.7 361C748 360.3 747 359.9 746.1 359.9C745.8 359.9 745.5 359.9 745.2 360C743 360.6 740.9 361.3 738.9 362.2C737.7 361.9 736.5 361.8 735.3 361.8C734.6 361.8 733.9 361.8 733.3 361.9C732.8 362 732.3 362.1 731.8 362.2C729.8 361.3 727.6 360.6 725.5 360C724.3 359.7 723.2 360 722.2 360.7C721.3 361.5 720.8 362.6 720.9 363.8C721 365 721.1 366.2 721.3 367.4C721.5 368.5 721.7 369.6 721.9 370.6C721.5 371.5 721.3 372.5 721.1 373.5C721 373.9 721 374.3 721 374.7C721 379.9 725.6 384.2 731.2 384.2H739.7C742.8 384.2 745.7 382.9 747.6 380.7C749.4 378.7 750.2 376.1 749.8 373.5C749.7 372.9 749.6 372.4 749.5 371.8C749.4 371.4 749.2 371 749.1 370.6C749.6 368.3 749.9 366 750.1 363.7C749.8 363.7 749.8 363.6 749.8 363.6ZM747.5 363.6C747.4 365.9 747 368.2 746.5 370.4C746.4 370.6 746.5 370.9 746.6 371.1C746.8 371.5 746.9 372 747.1 372.4C747.2 372.8 747.3 373.3 747.4 373.8C747.7 375.7 747.1 377.7 745.8 379.2C744.3 380.9 742.1 381.9 739.7 381.9H731.2C726.9 381.9 723.3 378.7 723.3 374.7C723.3 374.4 723.3 374.1 723.4 373.8C723.5 372.9 723.8 372 724.1 371.2C724.2 371 724.2 370.7 724.2 370.5C723.9 369.4 723.7 368.2 723.6 367.1C723.4 366 723.3 364.8 723.3 363.7C723.3 363.3 723.5 362.9 723.8 362.6C724 362.4 724.3 362.3 724.7 362.3C724.8 362.3 724.9 362.3 725 362.3C727.2 362.9 729.3 363.6 731.4 364.5C731.6 364.6 731.9 364.6 732.2 364.6C732.7 364.5 733.3 364.3 733.9 364.3C734.5 364.2 735 364.2 735.6 364.2C736.7 364.2 737.9 364.3 739 364.6C739.3 364.7 739.5 364.6 739.8 364.5C741.9 363.6 744 362.8 746.2 362.3C746.3 362.3 746.4 362.3 746.5 362.3C746.8 362.3 747.2 362.4 747.5 362.7C747.6 362.8 747.7 363 747.8 363.1C747.5 363.2 747.5 363.4 747.5 363.6Z" fill="#F1CDB3"/>
<path d="M737.5 376.6C736.9 376.6 736.5 376.1 736.5 375.6C736.5 375 736 374.4 735.3 374.4C734.7 374.4 734.1 374.9 734.1 375.6C734.1 376.2 733.6 376.6 733.1 376.6C732.5 376.6 731.9 377.1 731.9 377.8C731.9 378.5 732.4 379 733.1 379C733.9 379 734.7 378.7 735.3 378.2C735.9 378.7 736.7 379 737.5 379C738.1 379 738.7 378.5 738.7 377.8C738.7 377.1 738.1 376.6 737.5 376.6Z" fill="#F1CDB3"/>
<path d="M731.2 371.2L729.5 370.4C729.3 370.3 729.2 370.3 729 370.3C728.8 370.3 728.7 370.3 728.5 370.4L726.8 371.2C726.2 371.5 726 372.2 726.2 372.8C726.3 372.9 726.4 373.1 726.5 373.2C726.6 373.3 726.7 373.4 726.9 373.4C727 373.5 727.2 373.5 727.4 373.5C727.6 373.5 727.7 373.5 727.8 373.4L729.1 372.8L730.4 373.4C731 373.7 731.7 373.4 732 372.8C732 372.1 731.8 371.4 731.2 371.2Z" fill="#F1CDB3"/>
<path d="M743.8 371.2L742.1 370.4C741.9 370.3 741.8 370.3 741.6 370.3C741.4 370.3 741.3 370.3 741.1 370.4L739.4 371.2C738.8 371.5 738.6 372.2 738.8 372.8C739.1 373.4 739.8 373.6 740.4 373.4L741.7 372.8L743 373.4C743.2 373.5 743.3 373.5 743.5 373.5C743.9 373.5 744.4 373.2 744.6 372.8C744.7 372.1 744.4 371.4 743.8 371.2Z" fill="#F1CDB3"/>
<path d="M529.3 349.3C527.7 348 525.5 346.9 522.8 346C517.2 344.1 509.9 343.1 502 343.1C494.2 343.1 486.8 344.1 481.2 346C478.4 346.9 476.2 348.1 474.7 349.3C472.9 350.7 472 352.3 472 354V367.1C472 368.8 472.9 370.4 474.7 371.8C476.3 373.1 478.5 374.2 481.2 375.1C486.5 376.9 493.4 377.9 500.8 378V382.7H496.8C496.4 380.3 494.3 378.5 491.8 378.5C489 378.5 486.7 380.8 486.7 383.6C486.7 384.8 487.1 386 487.9 386.9C487.1 387.8 486.7 389 486.7 390.2C486.7 393 489 395.3 491.8 395.3C494.3 395.3 496.4 393.5 496.8 391.1H507.2C507.6 393.5 509.7 395.3 512.2 395.3C515 395.3 517.3 393 517.3 390.2C517.3 389 516.9 387.8 516.1 386.9C516.9 386 517.3 384.8 517.3 383.6C517.3 380.8 515 378.5 512.2 378.5C509.7 378.5 507.6 380.3 507.2 382.7H503.2V378C510.6 377.9 517.5 376.9 522.8 375.1C525.6 374.2 527.8 373 529.3 371.8C531.1 370.4 532 368.8 532 367.1V354C532 352.3 531.1 350.7 529.3 349.3ZM508.3 385.1C508.5 385.1 508.6 385.1 508.8 385C508.9 384.9 509.1 384.8 509.2 384.7C509.3 384.6 509.4 384.4 509.4 384.3C509.5 384.1 509.5 384 509.5 383.8C509.5 383.7 509.5 383.7 509.5 383.6C509.5 382.1 510.7 380.8 512.3 380.8C513.8 380.8 515.1 382 515.1 383.6C515.1 384.5 514.6 385.4 513.8 385.9C513.6 386 513.5 386.2 513.4 386.3C513.3 386.5 513.3 386.7 513.3 386.9C513.3 387.1 513.3 387.3 513.4 387.5C513.5 387.7 513.6 387.8 513.8 387.9C514.6 388.4 515.1 389.3 515.1 390.2C515.1 391.7 513.9 393 512.3 393C510.8 393 509.5 391.8 509.5 390.2C509.5 390.1 509.5 390.1 509.5 390C509.5 389.8 509.5 389.7 509.4 389.5C509.3 389.4 509.3 389.2 509.1 389.1C509 389 508.9 388.9 508.7 388.8C508.6 388.7 508.4 388.7 508.2 388.7H495.6C495.4 388.7 495.3 388.7 495.1 388.8C495 388.9 494.8 389 494.7 389.1C494.6 389.2 494.5 389.4 494.5 389.5C494.4 389.6 494.4 389.8 494.4 390C494.4 390.1 494.4 390.1 494.4 390.2C494.4 391.7 493.2 393 491.6 393C490 393 488.8 391.8 488.8 390.2C488.8 389.3 489.3 388.4 490.1 387.9C490.3 387.8 490.4 387.6 490.5 387.5C490.6 387.3 490.6 387.1 490.6 386.9C490.6 386.7 490.6 386.5 490.5 386.3C490.4 386.1 490.3 386 490.1 385.9C489.3 385.4 488.8 384.5 488.8 383.6C488.8 382.1 490 380.8 491.6 380.8C493.2 380.8 494.4 382 494.4 383.6C494.4 383.7 494.4 383.7 494.4 383.8C494.4 384 494.4 384.1 494.5 384.3C494.6 384.4 494.6 384.6 494.7 384.7C494.8 384.8 494.9 384.9 495.1 385C495.2 385.1 495.4 385.1 495.6 385.1H508.3ZM502 375.7C500.4 375.7 499.2 374.4 499.2 372.9C499.2 371.3 500.5 370.1 502 370.1C503.6 370.1 504.8 371.4 504.8 372.9C504.8 374.5 503.6 375.7 502 375.7ZM529.7 367.1C529.7 370.8 520.3 374.9 506.4 375.6C506.9 374.8 507.2 373.8 507.2 372.9C507.2 372.5 507.2 372.2 507.1 371.8C511.6 371.5 515.9 370.8 519.4 369.8C520 369.6 520.4 369 520.2 368.4C520 367.8 519.4 367.4 518.8 367.6C515.2 368.6 510.8 369.3 506 369.6C505.1 368.5 503.6 367.8 502.1 367.8C500.5 367.8 499.1 368.5 498.2 369.6C495 369.4 491.9 369.1 489.1 368.6C488.5 368.5 487.9 368.9 487.7 369.5C487.6 370.1 488 370.7 488.6 370.9C491.2 371.4 494.1 371.7 497 371.9C496.9 372.2 496.9 372.6 496.9 373C496.9 374 497.2 374.9 497.7 375.7C483.8 375 474.4 370.9 474.4 367.2V358.5C474.5 358.6 474.6 358.7 474.7 358.8C474.9 358.9 475 359 475.2 359.2C475.3 359.3 475.4 359.3 475.5 359.4C475.6 359.5 475.7 359.5 475.8 359.6C475.8 359.6 475.8 359.6 475.9 359.6C476 359.7 476.1 359.7 476.2 359.8C477.6 360.7 479.3 361.4 481.3 362.1C486.9 364 494.2 365 502.1 365C509.9 365 517.3 364 522.9 362.1C524.9 361.4 526.6 360.6 528 359.8C528.1 359.7 528.2 359.7 528.3 359.6H528.4C528.5 359.5 528.6 359.5 528.7 359.4C528.8 359.3 528.9 359.3 529 359.2C529.2 359.1 529.3 359 529.5 358.8C529.6 358.7 529.7 358.6 529.8 358.5V367.1H529.7ZM479.5 358.9C480.5 358.4 481.9 357.9 483.8 357.4C488.8 356 495.3 355.2 502 355.2C508.7 355.2 515.2 356 520.2 357.4C522.1 357.9 523.5 358.5 524.5 358.9C519.7 361.1 511.7 362.7 502 362.7C492.3 362.7 484.4 361 479.5 358.9ZM529.6 354.2C529.6 354.3 529.6 354.3 529.6 354.4C529.6 354.5 529.6 354.5 529.6 354.6C529.6 354.7 529.6 354.7 529.6 354.8C529.6 354.9 529.5 354.9 529.5 355V355.1C529.5 355.2 529.4 355.2 529.4 355.3C528.9 356.2 528 356.9 527.1 357.6C525.9 356.9 523.9 356 521 355.2C515.8 353.7 509.1 352.9 502.2 352.9C495.3 352.9 488.6 353.7 483.4 355.2C480.4 356 478.5 356.9 477.3 357.6C476.4 357 475.5 356.2 475 355.3C475 355.2 474.9 355.2 474.9 355.1V355C474.9 355 474.9 355 474.9 354.9C474.9 354.9 474.9 354.8 474.8 354.8C474.8 354.7 474.8 354.7 474.7 354.6C474.7 354.5 474.7 354.5 474.7 354.4C474.7 354.3 474.7 354.3 474.7 354.2C474.7 354.1 474.7 354.1 474.7 354C474.7 349.9 486.1 345.4 502.4 345.4C518.7 345.4 530.1 350 530.1 354C529.7 354 529.7 354.1 529.6 354.2Z" fill="#F1CDB3"/>
<path d="M520.2 350.6C520.2 350.4 520 350.2 519.9 350C519.8 349.9 519.8 349.9 519.7 349.9C519.6 349.8 519.4 349.8 519.3 349.7C519.1 349.7 519 349.7 518.8 349.7C518.7 349.7 518.7 349.7 518.6 349.8C518.5 349.8 518.5 349.9 518.4 349.9C518.3 349.9 518.3 350 518.2 350C518.1 350.1 518.1 350.1 518.1 350.2C518 350.3 518 350.5 517.9 350.6C517.9 350.7 517.9 350.8 517.9 350.8C517.9 350.9 517.9 351 517.9 351C517.9 351.2 518 351.3 518.1 351.4C518.1 351.5 518.2 351.5 518.2 351.6C518.3 351.7 518.3 351.7 518.4 351.7C518.5 351.7 518.5 351.8 518.6 351.8C518.7 351.8 518.7 351.9 518.8 351.9C518.9 351.9 519 351.9 519 351.9H519.2C519.3 351.9 519.3 351.9 519.4 351.8C519.5 351.8 519.5 351.7 519.6 351.7C519.7 351.7 519.7 351.6 519.8 351.6C519.9 351.5 519.9 351.5 519.9 351.4C520 351.3 520 351.1 520.1 351C520.1 350.9 520.1 350.8 520.1 350.8C520.1 350.8 520.2 350.7 520.2 350.6Z" fill="#F1CDB3"/>
<path d="M515.5 348.9C511.5 348.1 506.9 347.7 502.2 347.7C495.8 347.7 489.5 348.5 484.7 349.9C484.1 350.1 483.7 350.7 483.9 351.3C484 351.8 484.5 352.2 485 352.2C485.1 352.2 485.2 352.2 485.3 352.2C490 350.9 496 350.1 502.2 350.1C506.7 350.1 511.2 350.5 515.1 351.2C515.7 351.3 516.3 350.9 516.5 350.3C516.5 349.6 516.1 349 515.5 348.9Z" fill="#F1CDB3"/>
<path d="M486.1 368.6C486.1 368.5 486.1 368.5 486 368.4C486 368.3 485.9 368.3 485.9 368.2C485.9 368.1 485.8 368.1 485.8 368C485.7 367.9 485.7 367.9 485.6 367.9C485.5 367.9 485.5 367.8 485.4 367.8C485.3 367.8 485.3 367.7 485.2 367.7C485 367.7 484.9 367.7 484.7 367.7C484.6 367.7 484.6 367.7 484.5 367.8C484.4 367.8 484.4 367.9 484.3 367.9C484.2 367.9 484.2 368 484.1 368C484 368.1 484 368.1 484 368.2C484 368.3 483.9 368.3 483.9 368.4C483.9 368.5 483.8 368.5 483.8 368.6C483.8 368.7 483.8 368.8 483.8 368.8C483.8 369 483.8 369.1 483.9 369.2C483.9 369.3 484 369.3 484 369.4C484 369.5 484.1 369.5 484.1 369.6C484.2 369.7 484.2 369.7 484.3 369.7C484.4 369.7 484.4 369.8 484.5 369.8C484.6 369.8 484.6 369.9 484.7 369.9C484.8 369.9 484.9 369.9 484.9 369.9C485 369.9 485.1 369.9 485.1 369.9C485.2 369.9 485.2 369.9 485.3 369.8C485.4 369.8 485.4 369.7 485.5 369.7C485.6 369.7 485.6 369.6 485.7 369.6C485.8 369.5 485.9 369.4 486 369.2C486.1 369.1 486.1 368.9 486.1 368.8C486.1 368.8 486.1 368.7 486.1 368.6Z" fill="#F1CDB3"/>
<path d="M306.7 339.9L291.1 324.3C290.6 323.8 289.9 323.8 289.4 324.3L285.3 328.4C285.1 328.6 285 328.9 285 329.2C285 329.5 285.1 329.8 285.3 330L290.2 334.9L285.5 339.6L278.3 332.4C277.8 331.9 277.1 331.9 276.6 332.4L271.8 337.2C271.6 337.4 271.5 337.7 271.5 338C271.5 338.3 271.6 338.6 271.8 338.8L273.3 340.3L253.9 359.7C252.1 361.5 252.1 364.4 253.9 366.2L255.4 367.7L252.7 370.4C252.6 370.5 252.5 370.6 252.4 370.8C252.3 370.9 252.3 371.1 252.3 371.2C252.3 371.4 252.3 371.5 252.4 371.6C252.5 371.7 252.5 371.9 252.7 372L254.8 374.1L247.2 381.7C246.7 382.2 246.7 382.9 247.2 383.4C247.4 383.6 247.7 383.7 248 383.7C248.3 383.7 248.6 383.6 248.8 383.4L256.4 375.8L258.5 377.9C258.7 378.1 259 378.2 259.3 378.2C259.6 378.2 259.9 378.1 260.1 377.9L262.8 375.2L264.3 376.7C265.2 377.6 266.3 378 267.5 378C268.7 378 269.9 377.5 270.7 376.7L290.1 357.3L291.6 358.8C291.7 358.9 291.8 359 292 359.1C292.1 359.2 292.3 359.2 292.4 359.2C292.7 359.2 293 359.1 293.2 358.9L298 354.1C298.2 353.9 298.3 353.6 298.3 353.3C298.3 353 298.2 352.7 298 352.5L290.8 345.3L295.5 340.6L300.4 345.5C300.5 345.6 300.6 345.7 300.8 345.8C300.9 345.9 301.1 345.9 301.2 345.9C301.5 345.9 301.8 345.8 302 345.6L306.1 341.5C307.1 341.1 307.1 340.4 306.7 339.9ZM271.7 345.5L277.1 350.9C277.2 351 277.3 351.1 277.5 351.2C277.6 351.3 277.8 351.3 277.9 351.3C278.2 351.3 278.5 351.2 278.7 351C279.2 350.5 279.2 349.8 278.7 349.3L273.3 343.9L275.1 342.1L285.2 352.2L279.8 357.6L269.7 347.5L271.7 345.5ZM259.6 375.7L255.3 371.4L257.2 369.5L261.5 373.8L259.6 375.7ZM269.4 375.3C268.5 376.2 267.1 376.2 266.2 375.3L255.6 364.7C254.7 363.8 254.7 362.4 255.6 361.5L257.3 359.8L260.2 362.7C260.4 362.9 260.7 363 261 363C261.3 363 261.6 362.9 261.8 362.7C262.3 362.2 262.3 361.5 261.8 361L258.9 358.1L260.8 356.2L266.2 361.6C266.4 361.8 266.7 361.9 267 361.9C267.3 361.9 267.6 361.8 267.8 361.6C268.3 361.1 268.3 360.4 267.8 359.9L262.4 354.5L264.3 352.6L267.2 355.5C267.4 355.7 267.7 355.8 268 355.8C268.3 355.8 268.6 355.7 268.8 355.5C269.3 355 269.3 354.3 268.8 353.8L265.9 350.9L267.8 349L277.9 359.1L270.3 366.7C269.8 367.2 269.8 367.9 270.3 368.4C270.5 368.6 270.8 368.7 271.1 368.7C271.4 368.7 271.7 368.6 271.9 368.4L279.5 360.8L281.5 362.8L269.4 375.3ZM283.5 361.2L281.5 359.2L286.9 353.8L288.9 355.8L283.5 361.2ZM296 353.4L292.9 356.5L274.5 338.1L277.6 335L296 353.4ZM289.6 343.8L287.2 341.4L291.9 336.7L294.3 339.1L289.6 343.8ZM301.7 343.2L287.8 329.3L290.3 326.8L304.2 340.7L301.7 343.2Z" fill="#F1CDB3"/>
<path d="M269.3 370.7C269.3 370.6 269.3 370.6 269.2 370.5C269.2 370.4 269.1 370.4 269.1 370.3C269.1 370.2 269 370.2 269 370.1C268.9 370 268.9 370 268.8 370C268.7 370 268.7 369.9 268.6 369.9C268.5 369.9 268.5 369.8 268.4 369.8C268.2 369.8 268.1 369.8 267.9 369.8C267.8 369.8 267.8 369.8 267.7 369.9C267.6 369.9 267.6 370 267.5 370C267.4 370 267.4 370.1 267.3 370.1C267.2 370.2 267.2 370.2 267.2 370.3C267.2 370.4 267.1 370.4 267.1 370.5C267.1 370.6 267 370.6 267 370.7C267 370.8 267 370.9 267 370.9C267 371 267 371.1 267 371.1C267 371.2 267 371.2 267.1 371.3C267.1 371.4 267.2 371.4 267.2 371.5C267.2 371.6 267.3 371.6 267.3 371.7C267.4 371.8 267.5 371.9 267.7 372C267.8 372.1 268 372.1 268.1 372.1C268.3 372.1 268.4 372.1 268.5 372C268.6 371.9 268.8 371.9 268.9 371.7C269 371.6 269 371.6 269 371.5C269 371.4 269.1 371.4 269.1 371.3C269.1 371.2 269.2 371.2 269.2 371.1C269.2 371 269.2 370.9 269.2 370.9C269.3 370.9 269.3 370.8 269.3 370.7Z" fill="#F1CDB3"/>
<path d="M72.3 356.4C69 355.3 64.7 354.7 60.1 354.7C59.8 354.7 59.5 354.7 59.2 354.7C54.9 354.8 50.9 355.4 47.9 356.4C47.4 356.6 46.9 356.8 46.4 357V338.3C46.4 330.5 40 324.1 32.2 324.1C24.4 324.1 18 330.5 18 338.3V364C18 371.8 24.4 378.2 32.2 378.2C34.7 378.2 37.1 377.5 39.3 376.3C40.7 375.5 41.9 374.5 42.9 373.4C43.6 374.5 45.1 375.6 47.9 376.5C51.2 377.6 55.5 378.2 60.1 378.2C64.7 378.2 69 377.6 72.3 376.5C77 374.9 78 372.8 78 371.4V361.6C78 360.1 77 358 72.3 356.4ZM44.6 361.5V361.4C44.6 361.2 44.8 360.9 45 360.7L45.1 360.6L45.2 360.5C45.4 360.3 45.6 360.1 45.9 360C46.5 359.6 47.4 359.2 48.6 358.7C51.6 357.7 55.7 357.1 60 357.1C64 357.1 67.7 357.6 70.6 358.4L45.6 363C44.9 362.4 44.6 361.9 44.6 361.5ZM44.1 358.3C43.2 359 42.7 359.7 42.4 360.3C42.3 360.5 42.3 360.7 42.2 361C42.2 361.1 42.2 361.2 42.2 361.3C42.2 361.4 42.2 361.4 42.2 361.5V370.3C40 373.7 36.3 375.8 32.2 375.8C25.6 375.8 20.3 370.5 20.3 363.9V352.2H22.6V358.5C22.6 359.1 23.1 359.7 23.8 359.7C24.5 359.7 25 359.2 25 358.5V352.2H44.1V358.3V358.3ZM44.1 349.9H25V338.2C25 334.2 28.2 331 32.2 331C36.2 331 39.4 334.2 39.4 338.2C39.4 338.8 39.9 339.4 40.6 339.4C41.2 339.4 41.8 338.9 41.8 338.2C41.8 332.9 37.5 328.7 32.3 328.7C27 328.7 22.8 333 22.8 338.2V349.9H20.5V338.2C20.5 331.6 25.8 326.3 32.4 326.3C39 326.3 44.3 331.6 44.3 338.2V349.9H44.1ZM75.7 371.3C75.7 372 74.6 373.2 71.6 374.2C68.6 375.2 64.5 375.8 60.2 375.8C55.9 375.8 51.8 375.2 48.8 374.2C45.8 373.2 44.7 372 44.7 371.3V370.7V365.1C45.5 365.6 46.6 366.2 48 366.7C51.3 367.8 55.6 368.4 60.2 368.4C64.8 368.4 69.1 367.8 72.4 366.7C73.8 366.2 74.9 365.7 75.7 365.1V371.3ZM71.6 364.4C68.6 365.4 64.5 366 60.2 366C56.2 366 52.4 365.5 49.5 364.6L74.6 360C75.4 360.6 75.7 361.1 75.7 361.5C75.7 362.2 74.6 363.4 71.6 364.4Z" fill="#F1CDB3"/>
<path d="M24.7 362.4C24.6 362.3 24.6 362.3 24.5 362.3C24.4 362.3 24.3999 362.2 24.2999 362.2C24.1999 362.2 24.2 362.1 24.1 362.1C23.9 362.1 23.8 362.1 23.6 362.1C23.5 362.1 23.5 362.1 23.4 362.2C23.3 362.2 23.3 362.3 23.2 362.3C23.1 362.3 23.1 362.4 23 362.4C22.9 362.5 22.9 362.5 22.9 362.6C22.9 362.7 22.7999 362.7 22.7999 362.8C22.7999 362.9 22.7 362.9 22.7 363C22.7 363.1 22.7 363.2 22.7 363.2C22.7 363.3 22.7 363.4 22.7 363.4C22.7 363.5 22.6999 363.5 22.7999 363.6C22.7999 363.7 22.9 363.7 22.9 363.8C22.9 363.9 23 363.9 23 364C23.2 364.2 23.4 364.3 23.6 364.3C23.7 364.3 23.7999 364.3 23.7999 364.3C23.9999 364.3 24.1 364.3 24.2 364.2C24.3 364.2 24.3 364.1 24.4 364.1C24.5 364.1 24.5 364 24.6 364C24.7 363.9 24.7 363.9 24.7 363.8C24.7 363.7 24.7999 363.7 24.7999 363.6C24.7999 363.5 24.9 363.5 24.9 363.4C24.9 363.3 24.9 363.2 24.9 363.2C25 362.9 24.9 362.6 24.7 362.4Z" fill="#F1CDB3"/>
<path d="M983.1 167.2V161.8C983.1 161.1 982.5 160.5 981.8 160.5H980.8V151.4C980.8 150.7 980.2 150.1 979.5 150.1H971C970.3 150.1 969.7 150.7 969.7 151.4V160.5H968.7C968 160.5 967.4 161.1 967.4 161.8V167.2C962.8 169 959.6 173.5 959.6 178.7V208.7C959.6 209.4 960.2 210 960.9 210H989.6C990.3 210 990.9 209.4 990.9 208.7V178.7C991 173.5 987.7 169 983.1 167.2ZM972.4 152.6H978.3V160.4H972.4V152.6ZM970.1 163H980.5V166.3H970.1V163ZM988.3 207.4H962.2V178.7C962.2 173.3 966.6 168.9 972 168.9H978.5C983.9 168.9 988.3 173.3 988.3 178.7V207.4Z" fill="#F1CDB3"/>
<path d="M983.8 177.4H966.8C966.1 177.4 965.5 178 965.5 178.7V202.8C965.5 203.5 966.1 204.1 966.8 204.1H983.8C984.5 204.1 985.1 203.5 985.1 202.8V194.6C985.1 193.9 984.5 193.3 983.8 193.3C983.1 193.3 982.5 193.9 982.5 194.6V201.5H968.2V180H982.5V184.1C982.5 184.8 983.1 185.4 983.8 185.4C984.5 185.4 985.1 184.8 985.1 184.1V178.7C985.1 178 984.5 177.4 983.8 177.4Z" fill="#F1CDB3"/>
<path d="M983.8 188.1C983.1 188.1 982.5 188.7 982.5 189.4V189.5C982.5 190.2 983.1 190.8 983.8 190.8C984.5 190.8 985.1 190.2 985.1 189.5V189.4C985.1 188.6 984.5 188.1 983.8 188.1Z" fill="#F1CDB3"/>
<path d="M974 191.2C971.8 191.2 970.1 193 970.1 195.1C970.1 197.3 971.9 199 974 199C976.2 199 977.9 197.2 977.9 195.1C977.9 192.9 976.2 191.2 974 191.2ZM974 196.4C973.3 196.4 972.7 195.8 972.7 195.1C972.7 194.4 973.3 193.8 974 193.8C974.7 193.8 975.3 194.4 975.3 195.1C975.3 195.8 974.7 196.4 974 196.4Z" fill="#F1CDB3"/>
<path d="M980.8 186C980.8 183.8 979 182.1 976.9 182.1C974.7 182.1 973 183.9 973 186C973 188.2 974.8 189.9 976.9 189.9C979.1 189.9 980.8 188.1 980.8 186ZM976.9 187.3C976.2 187.3 975.6 186.7 975.6 186C975.6 185.3 976.2 184.7 976.9 184.7C977.6 184.7 978.2 185.3 978.2 186C978.2 186.7 977.7 187.3 976.9 187.3Z" fill="#F1CDB3"/>
<path d="M759 189.9L756.1 170.7C756.1 165.1 752.7 159.9 746.8 156.5C741.9 153.6 735.6 152.1 729 152.1C722.4 152.1 716.1 153.7 711.2 156.5C705.3 160 701.9 165.1 701.9 170.7L699 189.9C699 190 699 190 699 190.1C699 195.7 702.8 201 709.3 204.5C714.7 207.3 721.7 208.9 729 208.9C736.3 208.9 743.3 207.3 748.7 204.5C755.3 201 759 195.8 759 190.1C759 190 759 189.9 759 189.9ZM712.6 158.8C717.1 156.2 722.9 154.7 729 154.7C735.1 154.7 741 156.1 745.4 158.8C750.5 161.8 753.4 166.1 753.4 170.8C753.4 175.4 750.5 179.8 745.4 182.8C740.9 185.4 735.1 186.9 729 186.9C722.9 186.9 717 185.5 712.6 182.8C707.5 179.8 704.6 175.5 704.6 170.8C704.6 166.1 707.5 161.8 712.6 158.8ZM747.4 202C742.4 204.6 735.9 206.1 729 206.1C722.1 206.1 715.6 204.6 710.6 202C705 199 701.8 194.7 701.7 190.2L703.6 177.6C705.2 180.5 707.7 183.1 711.2 185.1C716.1 188 722.4 189.5 729 189.5C735.6 189.5 741.9 187.9 746.8 185.1C750.2 183.1 752.8 180.5 754.4 177.6L756.3 190.2C756.2 194.7 753 199 747.4 202Z" fill="#F1CDB3"/>
<path d="M729 184.1C738.4 184.1 746.6 180.5 749.5 175.1C750.3 173.7 750.6 172.3 750.6 170.8C750.6 167.1 748.2 163.7 744 161.2C740 158.8 734.6 157.5 729 157.5C723.3 157.5 718 158.8 714 161.2C709.7 163.7 707.4 167.1 707.4 170.8C707.4 172.3 707.8 173.7 708.5 175.1C711.4 180.4 719.6 184.1 729 184.1ZM729 181.3C721.2 181.3 714 178.5 711.3 174.4C714.1 170.3 721.2 167.5 729 167.5C736.8 167.5 744 170.3 746.7 174.4C744 178.5 736.8 181.3 729 181.3ZM710.1 170.8C710.1 168.1 712 165.5 715.4 163.5C719 161.4 723.9 160.2 729.1 160.2C734.3 160.2 739.1 161.4 742.8 163.5C746.2 165.5 748.1 168.1 748.1 170.8C748.1 171 748.1 171.3 748.1 171.5C744.3 167.4 737.2 164.8 729.2 164.8C721.2 164.8 714.1 167.4 710.3 171.5C710.1 171.2 710.1 171 710.1 170.8Z" fill="#F1CDB3"/>
<path d="M729 191.8C728.8 191.8 728.6 191.8 728.5 191.9C728.3 192 728.2 192.1 728 192.2C727.1 193.1 724.2 196.3 724.2 198.6C724.2 201.2 726.3 203.4 729 203.4C731.7 203.4 733.8 201.3 733.8 198.6C733.8 196.3 730.9 193.1 730 192.2C729.9 192.1 729.7 192 729.5 191.9C729.4 191.8 729.2 191.8 729 191.8ZM729 200.6C727.9 200.6 727 199.7 727 198.6C727 198 728 196.5 729 195.2C730.1 196.5 731 198 731 198.6C731 199.7 730.1 200.6 729 200.6Z" fill="#F1CDB3"/>
<path d="M722.9 173.9H722.5C721.7 173.9 721.1 174.5 721.1 175.3C721.1 176.1 721.7 176.7 722.5 176.7H722.9C723.7 176.7 724.3 176.1 724.3 175.3C724.2 174.5 723.6 173.9 722.9 173.9Z" fill="#F1CDB3"/>
<path d="M739.1 173.9H729.4C728.6 173.9 728 174.5 728 175.3C728 176.1 728.6 176.7 729.4 176.7H739.1C739.9 176.7 740.5 176.1 740.5 175.3C740.4 174.5 739.8 173.9 739.1 173.9Z" fill="#F1CDB3"/>
<path d="M523.2 158.8C517.5 153.1 510 150 502 150C494 150 486.5 153.1 480.8 158.8C475.1 164.5 472 172 472 180C472 188 475.1 195.5 480.8 201.2C486.5 206.9 494 210 502 210C510 210 517.5 206.9 523.2 201.2C528.9 195.5 532 188 532 180C532 172 528.9 164.5 523.2 158.8ZM482.6 199.4C477.9 194.7 475.1 188.5 474.6 181.9C475.3 181.9 476 182 476.8 182.1C482.1 182.9 487.4 185.7 491.8 190.1C496.2 194.5 499 199.8 499.8 205.1C499.9 205.8 500 206.5 500 207.3C493.7 206.9 487.5 204.2 482.6 199.4ZM502.7 207.4C502.7 206.5 502.6 205.7 502.5 204.8C501.6 198.9 498.5 193.1 493.7 188.3C488.9 183.5 483.1 180.4 477.2 179.5C476.3 179.4 475.5 179.3 474.6 179.3C474.6 178.4 474.7 177.6 474.8 176.7C475.7 176.7 476.7 176.8 477.6 177C484 178 490.4 181.3 495.5 186.5C500.7 191.7 504 198 505 204.4C505.1 205.3 505.2 206.3 505.3 207.2C504.5 207.3 503.6 207.3 502.7 207.4ZM521.4 199.4C517.6 203.2 512.9 205.7 508 206.8C508 205.9 507.9 205 507.7 204.1C506.7 197.1 503 190.3 497.5 184.7C491.9 179.1 485 175.5 478.1 174.5C477.2 174.4 476.3 174.3 475.3 174.2C476.4 169.1 478.9 164.5 482.7 160.8C486.4 157.1 490.8 154.7 495.5 153.6C495.5 154.7 495.6 155.8 495.8 156.8C496.8 163.8 500.5 170.6 506 176.2C511.6 181.8 518.5 185.4 525.4 186.4C526.5 186.6 527.5 186.7 528.6 186.7C527.4 191.4 525 195.8 521.4 199.4ZM529.1 184C528 184 526.9 183.9 525.7 183.7C519.3 182.7 512.9 179.4 507.7 174.2C502.5 169 499.2 162.7 498.2 156.3C498 155.2 497.9 154.1 497.9 153C498.8 152.9 499.6 152.8 500.5 152.7C500.5 153.7 500.6 154.8 500.7 155.9C501.6 161.8 504.7 167.6 509.5 172.4C510 172.9 510.8 172.9 511.3 172.4C511.8 171.9 511.8 171.1 511.3 170.6C506.9 166.2 504.1 160.9 503.3 155.6C503.2 154.6 503.1 153.7 503.1 152.8C509.7 153.1 516.2 155.8 521.2 160.8C526.1 165.7 528.9 172.1 529.2 178.9C528.3 178.9 527.3 178.8 526.4 178.7C525.7 178.6 525 179.1 524.9 179.8C524.8 180.5 525.3 181.2 526 181.3C527.1 181.5 528.1 181.5 529.2 181.5C529.2 181.5 529.2 181.5 529.3 181.5C529.3 182.2 529.2 183.1 529.1 184Z" fill="#F1CDB3"/>
<path d="M518.2 175.8C517.9 175.8 517.5 175.9 517.3 176.2C517.1 176.4 516.9 176.8 516.9 177.1C516.9 177.4 517 177.8 517.3 178C517.5 178.2 517.9 178.4 518.2 178.4C518.5 178.4 518.9 178.3 519.1 178C519.3 177.8 519.5 177.4 519.5 177.1C519.5 176.8 519.4 176.4 519.1 176.2C518.8 175.9 518.5 175.8 518.2 175.8Z" fill="#F1CDB3"/>
<path d="M302 162.7H295V162.5C295 158.9 292 155.9 288.4 155.9C284.8 155.9 281.8 158.9 281.8 162.5V162.7H273.6C270.9 162.7 268.7 164.9 268.7 167.6V173.2H261.3C259.5 173.2 258 174.3 257.3 175.9C257.3 175.9 257.3 175.9 257.3 176L253 188.9L252.9 189C252.7 189.1 252.2 189.3 251.4 189.5C250.2 189.8 249 190.5 248.3 191.5C247.5 192.5 247.1 193.8 247.1 195V201.1C247.1 203.1 248.8 204.8 250.8 204.8H256C256.6 207.8 259.1 210 262.3 210C265.5 210 268 207.8 268.6 204.8H287C287.6 207.8 290.1 210 293.3 210C296.4 210 299 207.8 299.6 204.8H302.9C305.4 204.8 307.1 203.1 307.1 200.6V170.1C306.9 163.4 303.5 162.7 302 162.7ZM284.1 162.5C284.1 160.2 286 158.3 288.3 158.3C290.6 158.3 292.5 160.2 292.5 162.5V162.7H284V162.5H284.1ZM259.4 176.7C259.5 176.3 259.8 176 260.1 175.8C260.4 175.6 260.8 175.5 261.2 175.5H268.6V188.8H255.4L259.4 176.7ZM262.2 207.7C260 207.7 258.2 205.9 258.2 203.7V203.6V203.5C258.3 201.4 260.1 199.7 262.2 199.7C264.1 199.7 265.8 201.1 266.1 202.9C266.1 203 266.1 203 266.1 203.1V203.2C266.1 203.2 266.1 203.2 266.1 203.3V203.4V203.5V203.6V203.7C266.2 205.9 264.4 207.7 262.2 207.7ZM293.1 207.7C290.9 207.7 289.1 205.9 289.1 203.7C289.1 203.6 289.1 203.6 289.1 203.5C289.1 203.5 289.1 203.5 289.1 203.4V203.3V203.2C289.1 203.1 289.1 203 289.2 202.8C289.6 201 291.2 199.6 293.1 199.6C293.7 199.6 294.2 199.7 294.7 199.9C296.1 200.5 297.2 201.9 297.2 203.6C297.1 205.9 295.3 207.7 293.1 207.7ZM302.7 202.5H299.4C299.4 202.5 299.4 202.5 299.4 202.4C299.4 202.3 299.3 202.1 299.3 202C299.3 201.9 299.3 201.9 299.3 201.8V201.7C299.3 201.6 299.3 201.6 299.2 201.5V201.4C299.2 201.3 299.1 201.3 299.1 201.2C299.1 201.2 299.1 201.2 299.1 201.1C299.1 201 299 200.9 299 200.8C299 200.7 298.9 200.6 298.9 200.6V200.5C298.9 200.4 298.8 200.4 298.8 200.3C298.8 200.3 298.8 200.2 298.7 200.2C298.6 200.1 298.6 200 298.5 200C298.4 199.9 298.4 199.8 298.3 199.8L298.2 199.7C298.2 199.7 298.2 199.6 298.1 199.6C298.1 199.5 298 199.5 298 199.5C298 199.5 298 199.5 297.9 199.4C297.8 199.3 297.8 199.3 297.7 199.2C297.6 199.1 297.6 199.1 297.5 199C297.4 198.9 297.4 198.9 297.3 198.9C297.3 198.9 297.2 198.9 297.2 198.8L297.1 198.7C297.1 198.7 297 198.7 297 198.6C296.9 198.5 296.7 198.4 296.6 198.3C296.6 198.3 296.5 198.3 296.5 198.2C296.4 198.2 296.4 198.1 296.3 198.1C296.3 198.1 296.2 198.1 296.2 198C296.1 198 296.1 197.9 296 197.9H295.9C295.8 197.9 295.7 197.8 295.7 197.8C295.6 197.8 295.5 197.7 295.4 197.7H295.3C295.2 197.7 295.2 197.7 295.1 197.6H295C294.9 197.6 294.9 197.6 294.8 197.5H294.7C294.6 197.5 294.5 197.5 294.4 197.4C294.3 197.4 294.3 197.4 294.2 197.4H294.1C294 197.4 294 197.4 293.9 197.4H293.8C293.7 197.4 293.7 197.4 293.6 197.4H293.5C293.4 197.4 293.3 197.4 293.2 197.4C293.1 197.4 293 197.4 292.9 197.4H292.8C292.7 197.4 292.7 197.4 292.6 197.4H292.5C292.4 197.4 292.4 197.4 292.3 197.4H292.2C292.1 197.4 292 197.4 291.9 197.5C291.8 197.5 291.8 197.5 291.7 197.5H291.6C291.5 197.5 291.5 197.5 291.4 197.5H291.3C291.2 197.5 291.2 197.5 291.1 197.6H291C290.9 197.6 290.8 197.7 290.7 197.7C290.6 197.7 290.6 197.8 290.5 197.8H290.4C290.3 197.8 290.3 197.9 290.2 197.9C290.2 197.9 290.1 197.9 290.1 198C290 198 290 198.1 289.9 198.1C289.8 198.2 289.7 198.2 289.6 198.3L289.5 198.4C289.5 198.4 289.4 198.4 289.4 198.5L289.3 198.6C289.3 198.6 289.2 198.6 289.2 198.7C289.1 198.7 289.1 198.8 289 198.8C289 198.8 289 198.8 288.9 198.9C288.8 199 288.8 199 288.7 199.1C288.7 199.1 288.7 199.1 288.7 199.2C288.6 199.3 288.6 199.3 288.6 199.4C288.6 199.4 288.6 199.5 288.5 199.5L288.4 199.6C288.4 199.6 288.4 199.7 288.3 199.7L288.2 199.8C288.1 199.9 288 200 288 200.1L287.9 200.2C287.9 200.2 287.9 200.3 287.8 200.3C287.8 200.4 287.7 200.4 287.7 200.5C287.7 200.5 287.7 200.6 287.6 200.6C287.6 200.7 287.5 200.7 287.5 200.8C287.5 200.8 287.5 200.8 287.5 200.9C287.5 201 287.4 201.1 287.4 201.2V201.3C287.4 201.4 287.3 201.4 287.3 201.5V201.6C287.3 201.7 287.3 201.7 287.2 201.8V201.9C287.2 202 287.1 202.1 287.1 202.2C287.1 202.3 287.1 202.3 287.1 202.4V202.5C287.1 202.5 287.1 202.5 287.1 202.6H268.7C268.7 202.6 268.7 202.6 268.7 202.5V202.4C268.7 202.2 268.6 202.1 268.6 201.9V201.8C268.6 201.7 268.6 201.7 268.5 201.6V201.5C268.5 201.4 268.4 201.4 268.4 201.3V201.2C268.4 201.1 268.3 201 268.3 200.9C268.3 200.9 268.3 200.9 268.3 200.8C268.3 200.7 268.2 200.7 268.2 200.6C268.2 200.6 268.2 200.5 268.1 200.5C268.1 200.4 268 200.4 268 200.3C268 200.3 268 200.2 267.9 200.2C267.9 200.1 267.8 200.1 267.8 200.1C267.7 200 267.6 199.9 267.6 199.8L267.5 199.7C267.5 199.7 267.5 199.6 267.4 199.6L267.3 199.5C267.3 199.5 267.3 199.4 267.2 199.4C267.2 199.3 267.1 199.3 267.1 199.2C267.1 199.2 267.1 199.2 267 199.1C266.9 199 266.9 199 266.8 198.9C266.8 198.9 266.8 198.9 266.7 198.8C266.6 198.8 266.6 198.7 266.5 198.7C266.5 198.7 266.4 198.7 266.4 198.6L266.3 198.5C266.3 198.5 266.2 198.5 266.2 198.4L266.1 198.3C266 198.2 265.9 198.2 265.9 198.1C265.9 198.1 265.8 198.1 265.8 198C265.8 198 265.7 197.9 265.6 197.9C265.6 197.9 265.5 197.9 265.5 197.8C265.4 197.8 265.4 197.7 265.3 197.7H265.2C265.1 197.7 265.1 197.6 265 197.6C264.9 197.6 264.8 197.5 264.7 197.5H264.6C264.5 197.5 264.5 197.5 264.4 197.4H264.3C264.2 197.4 264.2 197.4 264.1 197.4H264C263.8 197.4 263.7 197.3 263.5 197.3H263.4C263.3 197.3 263.3 197.3 263.2 197.3H263.1C263 197.3 263 197.3 262.9 197.3H262.8C262.7 197.3 262.6 197.3 262.5 197.3C262.4 197.3 262.3 197.3 262.2 197.3H262.1C262 197.3 262 197.3 261.9 197.3H261.8C261.7 197.3 261.7 197.3 261.6 197.3H261.5C261.4 197.3 261.3 197.3 261.2 197.4C261.1 197.4 261.1 197.4 261 197.4H260.9C260.8 197.4 260.8 197.4 260.7 197.4H260.6C260.5 197.4 260.5 197.4 260.4 197.5H260.3C260.2 197.5 260.1 197.6 260 197.6C260 197.6 260 197.6 259.9 197.6C259.8 197.6 259.8 197.7 259.7 197.7H259.6C259.5 197.7 259.5 197.8 259.4 197.8C259.4 197.8 259.3 197.8 259.3 197.9C259.2 197.9 259.2 198 259.2 198C259.1 198.1 259 198.1 259 198.2C259 198.2 258.9 198.2 258.9 198.3L258.8 198.4C258.8 198.4 258.7 198.4 258.7 198.5L258.6 198.6C258.6 198.6 258.5 198.6 258.5 198.7C258.4 198.7 258.4 198.8 258.4 198.8C258.4 198.8 258.4 198.8 258.3 198.9C258.2 199 258.2 199 258.1 199.1C258.1 199.1 258.1 199.1 258 199.2L257.9 199.3L257.8 199.4L257.7 199.5L257.6 199.6L257.5 199.7C257.4 199.8 257.4 199.9 257.3 199.9C257.3 199.9 257.3 200 257.2 200L257.1 200.1C257.1 200.1 257.1 200.2 257 200.2C257 200.3 256.9 200.3 256.9 200.4C256.9 200.4 256.9 200.5 256.8 200.5C256.8 200.6 256.7 200.6 256.7 200.7C256.7 200.7 256.7 200.7 256.7 200.8C256.7 200.9 256.6 201 256.6 201.1V201.2C256.6 201.3 256.6 201.3 256.5 201.4V201.5C256.5 201.6 256.5 201.6 256.4 201.7V201.8C256.4 201.9 256.4 201.9 256.4 202C256.4 202.1 256.4 202.2 256.3 202.3V202.4C256.3 202.4 256.3 202.4 256.3 202.5H251.1C250.3 202.5 249.7 201.9 249.7 201.1V195C249.7 194.2 250 193.5 250.4 192.9C250.9 192.3 251.5 191.9 252.3 191.7C253 191.5 253.5 191.4 254 191.1H296.6C297.2 191.1 297.8 190.6 297.8 189.9C297.8 189.3 297.3 188.7 296.6 188.7H271V167.5C271 166.1 272.2 164.9 273.6 164.9H302C304.2 164.9 304.6 168 304.6 169.9V200.4C304.6 202.2 303.4 202.5 302.7 202.5Z" fill="#F1CDB3"/>
<path d="M297.4 174.8C297.4 173.3 296.3 172 294.9 171.6C294.9 171.5 294.9 171.4 294.9 171.4C294.9 170.4 294.6 169.5 293.9 168.8C293.2 168.1 292.3 167.7 291.3 167.7C290.1 167.7 289.1 168.3 288.4 169.2C287.7 168.3 286.7 167.7 285.5 167.7C284.5 167.7 283.6 168.1 282.9 168.8C282.2 169.5 281.9 170.4 281.9 171.4C281.9 171.5 281.9 171.6 281.9 171.7C280.5 172 279.4 173.3 279.4 174.9C279.4 176.2 280.2 177.3 281.3 177.8C280.5 178.8 280.1 180 280.1 181.3C280.1 184.4 282.6 186.9 285.7 186.9C286.7 186.9 287.7 186.6 288.5 186.1C289.4 186.6 290.3 186.9 291.3 186.9C294.4 186.9 296.8 184.4 296.8 181.3C296.8 180 296.3 178.8 295.6 177.8C296.7 177.2 297.4 176.1 297.4 174.8ZM291.3 170.1C291.7 170.1 292 170.2 292.2 170.5C292.4 170.7 292.5 171 292.5 171.4C292.5 172.1 291.9 172.7 291.2 172.7C291 172.7 290.8 172.7 290.7 172.6C290.7 172.6 290.7 172.6 290.6 172.6C290.5 172.5 290.4 172.5 290.3 172.4C290.1 172.2 289.9 171.8 289.9 171.5C290 170.7 290.6 170.1 291.3 170.1ZM284.5 170.5C284.6 170.4 284.8 170.3 284.9 170.2C285.1 170.1 285.2 170.1 285.4 170.1C286.1 170.1 286.7 170.7 286.7 171.4C286.7 171.6 286.7 171.7 286.6 171.9C286.5 172.1 286.4 172.2 286.3 172.3C286.2 172.4 286.1 172.5 286 172.5C286 172.5 285.9 172.5 285.9 172.6C285.7 172.7 285.6 172.7 285.4 172.7C284.7 172.7 284.1 172.1 284.1 171.4C284.2 171 284.3 170.7 284.5 170.5ZM281.7 174.8C281.7 174.3 282.1 173.9 282.6 173.9C283.1 173.9 283.5 174.3 283.5 174.8C283.5 174.9 283.5 175 283.5 175.1C283.5 175.2 283.4 175.2 283.4 175.3C283.2 175.6 283 175.7 282.6 175.7C282.1 175.7 281.7 175.3 281.7 174.8ZM291.2 184.4C290.4 184.4 289.7 184.1 289.1 183.6C288.9 183.4 288.6 183.3 288.3 183.3C288 183.3 287.7 183.4 287.5 183.6C286.9 184.1 286.2 184.4 285.4 184.4C283.6 184.4 282.2 183 282.2 181.2C282.2 179.9 283 178.6 284.3 178.2C284.5 178.1 284.7 178 284.8 177.8C284.9 177.6 285 177.4 285 177.2C285 176.9 285.1 176.6 285.2 176.3C285.2 176.2 285.3 176.1 285.3 176.1C285.6 175.5 286.1 175 286.7 174.7C286.8 174.7 286.8 174.7 286.9 174.6C287.3 174.4 287.7 174.3 288.2 174.3C288.7 174.3 289.1 174.4 289.5 174.6C289.5 174.6 289.6 174.6 289.7 174.7C290.3 175 290.8 175.5 291.1 176.1C291.1 176.2 291.2 176.3 291.2 176.3C291.3 176.6 291.4 176.9 291.4 177.2C291.4 177.4 291.5 177.6 291.6 177.8C291.7 178 291.9 178.1 292.1 178.2C293.4 178.7 294.2 179.9 294.2 181.2C294.4 183 293 184.4 291.2 184.4ZM294.2 175.7C293.9 175.7 293.6 175.5 293.4 175.3C293.4 175.2 293.3 175.2 293.3 175.1C293.3 175 293.3 174.9 293.3 174.8C293.3 174.3 293.7 173.9 294.2 173.9C294.7 173.9 295.1 174.3 295.1 174.8C295.1 175.3 294.7 175.7 294.2 175.7Z" fill="#F1CDB3"/>
<path d="M302 189.8C302 189.7 302 189.7 301.9 189.6C301.9 189.5 301.8 189.5 301.8 189.4C301.8 189.3 301.7 189.3 301.7 189.2C301.6 189.1 301.6 189.1 301.5 189.1C301.4 189 301.2 189 301.1 188.9C301 188.9 300.8 188.9 300.6 188.9C300.5 188.9 300.5 188.9 300.4 189C300.3 189 300.3 189.1 300.2 189.1C300.1 189.1 300.1 189.2 300 189.2C299.9 189.3 299.9 189.3 299.9 189.4C299.9 189.5 299.8 189.5 299.8 189.6C299.8 189.7 299.7 189.7 299.7 189.8C299.7 189.9 299.7 190 299.7 190V190.2C299.7 190.3 299.7 190.3 299.8 190.4C299.8 190.5 299.9 190.5 299.9 190.6C299.9 190.7 300 190.7 300 190.8C300.1 190.9 300.1 190.9 300.2 190.9C300.3 190.9 300.3 191 300.4 191C300.5 191 300.5 191.1 300.6 191.1C300.7 191.1 300.8 191.1 300.8 191.1H301C301.1 191.1 301.1 191.1 301.2 191C301.3 191 301.3 190.9 301.4 190.9C301.5 190.9 301.5 190.8 301.6 190.8C301.7 190.7 301.7 190.7 301.7 190.6C301.7 190.5 301.8 190.5 301.8 190.4C301.8 190.3 301.9 190.3 301.9 190.2C301.9 190.1 301.9 190 301.9 190C301.9 190 302 189.9 302 189.8Z" fill="#F1CDB3"/>
<path d="M288.4 150C287.8 150 287.2 150.5 287.2 151.2V153.2C287.2 153.8 287.7 154.4 288.4 154.4C289.1 154.4 289.6 153.9 289.6 153.2V151.2C289.6 150.5 289 150 288.4 150Z" fill="#F1CDB3"/>
<path d="M283.5 154.6L281.9 153.3C281.8 153.2 281.6 153.1 281.5 153.1C281.4 153.1 281.2 153 281 153.1C280.8 153.1 280.7 153.2 280.6 153.2C280.5 153.3 280.3 153.4 280.3 153.5C279.9 154 280 154.7 280.5 155.1L282.1 156.4C282.3 156.6 282.6 156.7 282.8 156.7C283 156.7 283.2 156.7 283.3 156.6C283.5 156.5 283.6 156.4 283.7 156.3C284.1 155.7 284 155 283.5 154.6Z" fill="#F1CDB3"/>
<path d="M296.6 153.5C296.2 153 295.5 152.9 295 153.3L293.4 154.6C292.9 155 292.8 155.7 293.2 156.2C293.3 156.3 293.5 156.5 293.6 156.5C293.8 156.6 293.9 156.6 294.1 156.6C294.4 156.6 294.6 156.5 294.8 156.3L296.4 155C296.9 154.7 297 154 296.6 153.5Z" fill="#F1CDB3"/>
<path d="M63.9001 175.5L58.1001 159.7V151.4C58.1001 150.6 57.5001 150 56.7001 150H25.3001C24.5001 150 23.9001 150.6 23.9001 151.4V159.7L18.1001 175.5C17.4001 177.4 17.1001 179.3 17.1001 181.3V205.1C17.1001 207.8 19.3001 210 22.0001 210H60.0001C62.7001 210 64.9001 207.8 64.9001 205.1V181.3C64.9001 179.3 64.6001 177.4 63.9001 175.5ZM26.7001 152.9H55.3001V158.6H26.7001V152.9ZM62.1001 200.1H41.9001C41.1001 200.1 40.5001 200.7 40.5001 201.5C40.5001 202.3 41.1001 202.9 41.9001 202.9H62.1001V205C62.1001 206.1 61.2001 207.1 60.0001 207.1H22.0001C20.9001 207.1 19.9001 206.2 19.9001 205V181.2C19.9001 179.5 20.2001 177.9 20.8001 176.4L26.3001 161.4H55.7001L61.2001 176.4C61.8001 178 62.1001 179.6 62.1001 181.2V200.1Z" fill="#F1CDB3"/>
<path d="M46.6001 183.8C46.1001 180.9 43.6001 178.6 40.5001 178.6C37.4001 178.6 34.9001 180.8 34.4001 183.8C32.0001 184.8 30.4001 187.3 30.6001 190C30.8001 193 33.3001 195.4 36.3001 195.6C37.5001 195.7 38.6001 195.4 39.6001 194.9C40.2001 194.6 40.8001 194.6 41.4001 194.9C42.3001 195.4 43.3001 195.6 44.3001 195.6C44.5001 195.6 44.6001 195.6 44.8001 195.6C47.8001 195.4 50.2001 192.9 50.5001 190C50.6001 187.3 49.0001 184.8 46.6001 183.8ZM47.6001 189.7C47.5001 191.3 46.2001 192.6 44.6001 192.7C44.0001 192.7 43.4001 192.6 42.8001 192.3C42.1001 191.9 41.4001 191.8 40.6001 191.8C39.8001 191.8 39.1001 192 38.4001 192.3C37.9001 192.6 37.2001 192.7 36.6001 192.7C35.0001 192.6 33.7001 191.3 33.6001 189.7C33.5001 188.1 34.6001 186.6 36.2001 186.2C36.5001 186.1 36.8001 186 37.0001 185.7C37.2001 185.4 37.3001 185.1 37.3001 184.8V184.7C37.3001 182.9 38.8001 181.4 40.6001 181.4C42.4001 181.4 43.9001 182.9 43.9001 184.7V184.8C43.9001 185.1 44.0001 185.5 44.2001 185.7C44.4001 186 44.7001 186.1 45.0001 186.2C46.6001 186.6 47.7001 188.1 47.6001 189.7Z" fill="#F1CDB3"/>
<path d="M40.6 175.8C43.2 175.8 45.2 173.7 45.2 171.2C45.2 168.7 43.1 166.6 40.6 166.6C38 166.6 36 168.7 36 171.2C36 173.7 38 175.8 40.6 175.8ZM40.6 169.3C41.6 169.3 42.4 170.1 42.4 171.1C42.4 172.1 41.6 172.9 40.6 172.9C39.6 172.9 38.8 172.1 38.8 171.1C38.8 170.1 39.6 169.3 40.6 169.3Z" fill="#F1CDB3"/>
<path d="M35.2 176.7C35.2 174.1 33.1 172.1 30.6 172.1C28.1 172.1 26 174.2 26 176.7C26 179.3 28.1 181.3 30.6 181.3C33.1 181.3 35.2 179.2 35.2 176.7ZM30.6 178.4C29.6 178.4 28.8 177.6 28.8 176.6C28.8 175.6 29.6 174.8 30.6 174.8C31.6 174.8 32.4 175.6 32.4 176.6C32.4 177.6 31.5 178.4 30.6 178.4Z" fill="#F1CDB3"/>
<path d="M50.6 172C48 172 46 174.1 46 176.6C46 179.2 48.1 181.2 50.6 181.2C53.2 181.2 55.2 179.1 55.2 176.6C55.2 174.1 53.1 172 50.6 172ZM50.6 178.4C49.6 178.4 48.8 177.6 48.8 176.6C48.8 175.6 49.6 174.8 50.6 174.8C51.6 174.8 52.4 175.6 52.4 176.6C52.4 177.6 51.5 178.4 50.6 178.4Z" fill="#F1CDB3"/>
<path d="M35.7 200.1H35.4C34.6 200.1 34 200.7 34 201.5C34 202.3 34.6 202.9 35.4 202.9H35.7C36.5 202.9 37.1 202.3 37.1 201.5C37.1 200.8 36.5 200.1 35.7 200.1Z" fill="#F1CDB3"/>
<path d="M904 23V25H893V27L890 24L893 21V23H904Z" fill="#292929"/>
<path d="M971 64.5V62.5H982V60.5L985 63.5L982 66.5V64.5H971Z" fill="#CDCDCD"/>
<path d="M904 62.5V64.5H893V66.5L890 63.5L893 60.5V62.5H904Z" fill="#CDCDCD"/>
<path fill-rule="evenodd" clip-rule="evenodd" d="M979.426 105L983.705 100.722C984.098 100.328 984.098 99.6892 983.705 99.2954C983.311 98.9016 982.672 98.9016 982.278 99.2954L978 103.574L973.721 99.2954C973.328 98.9015 972.689 98.9015 972.295 99.2954C971.902 99.6892 971.902 100.328 972.295 100.722L976.574 105L972.295 109.278C971.902 109.672 971.902 110.311 972.295 110.705C972.689 111.098 973.328 111.098 973.721 110.705L978 106.426L982.278 110.705C982.672 111.098 983.311 111.098 983.705 110.705C984.098 110.311 984.098 109.672 983.705 109.278L979.426 105Z" fill="#292929"/>
</g>
<defs>
<clipPath id="clip0">
<rect width="1026" height="452" fill="white"/>
</clipPath>
</defs>
</svg>
